<svg xmlns="http://www.w3.org/2000/svg" viewBox="0 0 1080 980" width="1080" height="980" style="font-family: sans-serif; color: #1a1a1a;">
<rect width="1080" height="980" fill="#fafaf7"/>
<text x="540.0" y="30" text-anchor="middle" font-size="20" font-weight="bold" fill="#222">YOUSPEAK — morpheme glyphs (45 designs)</text>
<text x="540.0" y="50" text-anchor="middle" font-size="12" fill="#666">rendered as SVG — no font required</text>
<g transform="translate(35 70)">
<g transform="translate(0 100) scale(0.1 -0.1)"><line x1="350" y1="450" x2="450" y2="600" stroke="currentColor" stroke-width="60" stroke-linecap="square"/><line x1="450" y1="600" x2="550" y2="600" stroke="currentColor" stroke-width="60" stroke-linecap="square"/><line x1="550" y1="600" x2="650" y2="450" stroke="currentColor" stroke-width="60" stroke-linecap="square"/><line x1="650" y1="450" x2="550" y2="300" stroke="currentColor" stroke-width="60" stroke-linecap="square"/><line x1="550" y1="300" x2="450" y2="300" stroke="currentColor" stroke-width="60" stroke-linecap="square"/><line x1="450" y1="300" x2="350" y2="450" stroke="currentColor" stroke-width="60" stroke-linecap="square"/><line x1="250" y1="250" x2="750" y2="650" stroke="currentColor" stroke-width="60" stroke-linecap="square"/></g>
<text x="50.0" y="120" text-anchor="middle" font-size="13" fill="#444">a</text>
</g>
<g transform="translate(165 70)">
<g transform="translate(0 100) scale(0.1 -0.1)"><line x1="400" y1="750" x2="400" y2="450" stroke="currentColor" stroke-width="60" stroke-linecap="square"/><line x1="400" y1="450" x2="650" y2="200" stroke="currentColor" stroke-width="60" stroke-linecap="square"/><polygon points="340,390 460,390 460,510 340,510" fill="currentColor"/></g>
<text x="50.0" y="120" text-anchor="middle" font-size="13" fill="#444">algia</text>
</g>
<g transform="translate(295 70)">
<g transform="translate(0 100) scale(0.1 -0.1)"><line x1="500" y1="200" x2="500" y2="500" stroke="currentColor" stroke-width="60" stroke-linecap="square"/><line x1="500" y1="500" x2="300" y2="750" stroke="currentColor" stroke-width="60" stroke-linecap="square"/><line x1="500" y1="500" x2="700" y2="750" stroke="currentColor" stroke-width="60" stroke-linecap="square"/></g>
<text x="50.0" y="120" text-anchor="middle" font-size="13" fill="#444">allos</text>
</g>
<g transform="translate(425 70)">
<g transform="translate(0 100) scale(0.1 -0.1)"><line x1="500" y1="250" x2="500" y2="650" stroke="currentColor" stroke-width="60" stroke-linecap="square"/><line x1="500" y1="650" x2="400" y2="550" stroke="currentColor" stroke-width="60" stroke-linecap="square"/><line x1="500" y1="650" x2="600" y2="550" stroke="currentColor" stroke-width="60" stroke-linecap="square"/></g>
<text x="50.0" y="120" text-anchor="middle" font-size="13" fill="#444">ana</text>
</g>
<g transform="translate(555 70)">
<g transform="translate(0 100) scale(0.1 -0.1)"><line x1="200" y1="750" x2="800" y2="750" stroke="currentColor" stroke-width="60" stroke-linecap="square"/><line x1="200" y1="250" x2="800" y2="250" stroke="currentColor" stroke-width="60" stroke-linecap="square"/><line x1="500" y1="750" x2="500" y2="250" stroke="currentColor" stroke-width="60" stroke-linecap="square"/></g>
<text x="50.0" y="120" text-anchor="middle" font-size="13" fill="#444">anagno</text>
</g>
<g transform="translate(685 70)">
<g transform="translate(0 100) scale(0.1 -0.1)"><line x1="200" y1="450" x2="250" y2="700" stroke="currentColor" stroke-width="60" stroke-linecap="square"/><line x1="250" y1="700" x2="500" y2="800" stroke="currentColor" stroke-width="60" stroke-linecap="square"/><line x1="500" y1="800" x2="750" y2="700" stroke="currentColor" stroke-width="60" stroke-linecap="square"/><line x1="750" y1="700" x2="800" y2="450" stroke="currentColor" stroke-width="60" stroke-linecap="square"/><line x1="800" y1="450" x2="750" y2="250" stroke="currentColor" stroke-width="60" stroke-linecap="square"/><line x1="750" y1="250" x2="500" y2="200" stroke="currentColor" stroke-width="60" stroke-linecap="square"/><line x1="500" y1="200" x2="300" y2="250" stroke="currentColor" stroke-width="60" stroke-linecap="square"/><line x1="300" y1="250" x2="300" y2="400" stroke="currentColor" stroke-width="60" stroke-linecap="square"/></g>
<text x="50.0" y="120" text-anchor="middle" font-size="13" fill="#444">anastro</text>
</g>
<g transform="translate(815 70)">
<g transform="translate(0 100) scale(0.1 -0.1)"><line x1="400" y1="550" x2="400" y2="300" stroke="currentColor" stroke-width="60" stroke-linecap="square"/><line x1="400" y1="300" x2="600" y2="150" stroke="currentColor" stroke-width="60" stroke-linecap="square"/></g>
<text x="50.0" y="120" text-anchor="middle" font-size="13" fill="#444">ance</text>
</g>
<g transform="translate(945 70)">
<g transform="translate(0 100) scale(0.1 -0.1)"><line x1="500" y1="750" x2="800" y2="550" stroke="currentColor" stroke-width="60" stroke-linecap="square"/><line x1="800" y1="550" x2="680" y2="250" stroke="currentColor" stroke-width="60" stroke-linecap="square"/><line x1="680" y1="250" x2="320" y2="250" stroke="currentColor" stroke-width="60" stroke-linecap="square"/><line x1="320" y1="250" x2="200" y2="550" stroke="currentColor" stroke-width="60" stroke-linecap="square"/><line x1="200" y1="550" x2="500" y2="750" stroke="currentColor" stroke-width="60" stroke-linecap="square"/></g>
<text x="50.0" y="120" text-anchor="middle" font-size="13" fill="#444">arti</text>
</g>
<g transform="translate(35 220)">
<g transform="translate(0 100) scale(0.1 -0.1)"><line x1="400" y1="700" x2="350" y2="800" stroke="currentColor" stroke-width="60" stroke-linecap="square"/><line x1="500" y1="730" x2="500" y2="830" stroke="currentColor" stroke-width="60" stroke-linecap="square"/><line x1="600" y1="700" x2="650" y2="800" stroke="currentColor" stroke-width="60" stroke-linecap="square"/><line x1="350" y1="450" x2="450" y2="600" stroke="currentColor" stroke-width="60" stroke-linecap="square"/><line x1="450" y1="600" x2="550" y2="600" stroke="currentColor" stroke-width="60" stroke-linecap="square"/><line x1="550" y1="600" x2="650" y2="450" stroke="currentColor" stroke-width="60" stroke-linecap="square"/><line x1="650" y1="450" x2="550" y2="300" stroke="currentColor" stroke-width="60" stroke-linecap="square"/><line x1="550" y1="300" x2="450" y2="300" stroke="currentColor" stroke-width="60" stroke-linecap="square"/><line x1="450" y1="300" x2="350" y2="450" stroke="currentColor" stroke-width="60" stroke-linecap="square"/></g>
<text x="50.0" y="120" text-anchor="middle" font-size="13" fill="#444">cand</text>
</g>
<g transform="translate(165 220)">
<g transform="translate(0 100) scale(0.1 -0.1)"><line x1="250" y1="250" x2="400" y2="450" stroke="currentColor" stroke-width="60" stroke-linecap="square"/><line x1="400" y1="450" x2="250" y2="650" stroke="currentColor" stroke-width="60" stroke-linecap="square"/><line x1="750" y1="250" x2="600" y2="450" stroke="currentColor" stroke-width="60" stroke-linecap="square"/><line x1="600" y1="450" x2="750" y2="650" stroke="currentColor" stroke-width="60" stroke-linecap="square"/></g>
<text x="50.0" y="120" text-anchor="middle" font-size="13" fill="#444">com</text>
</g>
<g transform="translate(295 220)">
<g transform="translate(0 100) scale(0.1 -0.1)"><line x1="250" y1="650" x2="450" y2="650" stroke="currentColor" stroke-width="60" stroke-linecap="square"/><line x1="450" y1="650" x2="450" y2="250" stroke="currentColor" stroke-width="60" stroke-linecap="square"/><line x1="450" y1="250" x2="250" y2="250" stroke="currentColor" stroke-width="60" stroke-linecap="square"/><line x1="750" y1="650" x2="550" y2="650" stroke="currentColor" stroke-width="60" stroke-linecap="square"/><line x1="550" y1="650" x2="550" y2="250" stroke="currentColor" stroke-width="60" stroke-linecap="square"/><line x1="550" y1="250" x2="750" y2="250" stroke="currentColor" stroke-width="60" stroke-linecap="square"/></g>
<text x="50.0" y="120" text-anchor="middle" font-size="13" fill="#444">compler</text>
</g>
<g transform="translate(425 220)">
<g transform="translate(0 100) scale(0.1 -0.1)"><line x1="350" y1="100" x2="350" y2="750" stroke="currentColor" stroke-width="60" stroke-linecap="square"/><line x1="650" y1="100" x2="650" y2="750" stroke="currentColor" stroke-width="60" stroke-linecap="square"/></g>
<text x="50.0" y="120" text-anchor="middle" font-size="13" fill="#444">diplos</text>
</g>
<g transform="translate(555 220)">
<g transform="translate(0 100) scale(0.1 -0.1)"><line x1="250" y1="500" x2="300" y2="250" stroke="currentColor" stroke-width="60" stroke-linecap="square"/><line x1="300" y1="250" x2="700" y2="250" stroke="currentColor" stroke-width="60" stroke-linecap="square"/><line x1="700" y1="250" x2="750" y2="500" stroke="currentColor" stroke-width="60" stroke-linecap="square"/><line x1="500" y1="550" x2="500" y2="750" stroke="currentColor" stroke-width="60" stroke-linecap="square"/></g>
<text x="50.0" y="120" text-anchor="middle" font-size="13" fill="#444">dokim</text>
</g>
<g transform="translate(685 220)">
<g transform="translate(0 100) scale(0.1 -0.1)"><line x1="150" y1="700" x2="850" y2="700" stroke="currentColor" stroke-width="60" stroke-linecap="square"/><line x1="850" y1="700" x2="500" y2="150" stroke="currentColor" stroke-width="60" stroke-linecap="square"/><line x1="500" y1="150" x2="150" y2="700" stroke="currentColor" stroke-width="60" stroke-linecap="square"/><line x1="80" y1="430" x2="920" y2="430" stroke="currentColor" stroke-width="60" stroke-linecap="square"/></g>
<text x="50.0" y="120" text-anchor="middle" font-size="13" fill="#444">doxa</text>
</g>
<g transform="translate(815 220)">
<g transform="translate(0 100) scale(0.1 -0.1)"><line x1="300" y1="650" x2="550" y2="650" stroke="currentColor" stroke-width="60" stroke-linecap="square"/><line x1="550" y1="650" x2="550" y2="250" stroke="currentColor" stroke-width="60" stroke-linecap="square"/><line x1="550" y1="250" x2="300" y2="250" stroke="currentColor" stroke-width="60" stroke-linecap="square"/></g>
<text x="50.0" y="120" text-anchor="middle" font-size="13" fill="#444">en</text>
</g>
<g transform="translate(945 220)">
<g transform="translate(0 100) scale(0.1 -0.1)"><line x1="400" y1="500" x2="400" y2="300" stroke="currentColor" stroke-width="60" stroke-linecap="square"/><line x1="400" y1="300" x2="550" y2="200" stroke="currentColor" stroke-width="60" stroke-linecap="square"/></g>
<text x="50.0" y="120" text-anchor="middle" font-size="13" fill="#444">ence</text>
</g>
<g transform="translate(35 370)">
<g transform="translate(0 100) scale(0.1 -0.1)"><line x1="400" y1="500" x2="400" y2="300" stroke="currentColor" stroke-width="60" stroke-linecap="square"/><line x1="400" y1="300" x2="700" y2="250" stroke="currentColor" stroke-width="60" stroke-linecap="square"/></g>
<text x="50.0" y="120" text-anchor="middle" font-size="13" fill="#444">escence</text>
</g>
<g transform="translate(165 370)">
<g transform="translate(0 100) scale(0.1 -0.1)"><line x1="300" y1="250" x2="450" y2="500" stroke="currentColor" stroke-width="60" stroke-linecap="square"/><line x1="450" y1="500" x2="500" y2="600" stroke="currentColor" stroke-width="60" stroke-linecap="square"/><line x1="700" y1="250" x2="550" y2="500" stroke="currentColor" stroke-width="60" stroke-linecap="square"/><line x1="550" y1="500" x2="500" y2="600" stroke="currentColor" stroke-width="60" stroke-linecap="square"/></g>
<text x="50.0" y="120" text-anchor="middle" font-size="13" fill="#444">haphe</text>
</g>
<g transform="translate(295 370)">
<g transform="translate(0 100) scale(0.1 -0.1)"><line x1="200" y1="550" x2="800" y2="550" stroke="currentColor" stroke-width="60" stroke-linecap="square"/><line x1="500" y1="550" x2="500" y2="200" stroke="currentColor" stroke-width="60" stroke-linecap="square"/></g>
<text x="50.0" y="120" text-anchor="middle" font-size="13" fill="#444">hypo</text>
</g>
<g transform="translate(425 370)">
<g transform="translate(0 100) scale(0.1 -0.1)"><line x1="400" y1="500" x2="400" y2="300" stroke="currentColor" stroke-width="60" stroke-linecap="square"/><line x1="400" y1="300" x2="600" y2="150" stroke="currentColor" stroke-width="60" stroke-linecap="square"/><line x1="500" y1="550" x2="500" y2="750" stroke="currentColor" stroke-width="60" stroke-linecap="square"/></g>
<text x="50.0" y="120" text-anchor="middle" font-size="13" fill="#444">iance</text>
</g>
<g transform="translate(555 370)">
<g transform="translate(0 100) scale(0.1 -0.1)"><line x1="200" y1="700" x2="800" y2="700" stroke="currentColor" stroke-width="60" stroke-linecap="square"/><line x1="800" y1="700" x2="200" y2="200" stroke="currentColor" stroke-width="60" stroke-linecap="square"/><line x1="200" y1="200" x2="800" y2="200" stroke="currentColor" stroke-width="60" stroke-linecap="square"/><line x1="800" y1="200" x2="200" y2="700" stroke="currentColor" stroke-width="60" stroke-linecap="square"/></g>
<text x="50.0" y="120" text-anchor="middle" font-size="13" fill="#444">kairos</text>
</g>
<g transform="translate(685 370)">
<g transform="translate(0 100) scale(0.1 -0.1)"><line x1="500" y1="80" x2="500" y2="700" stroke="currentColor" stroke-width="60" stroke-linecap="square"/><line x1="200" y1="500" x2="500" y2="780" stroke="currentColor" stroke-width="60" stroke-linecap="square"/><line x1="800" y1="500" x2="500" y2="780" stroke="currentColor" stroke-width="60" stroke-linecap="square"/></g>
<text x="50.0" y="120" text-anchor="middle" font-size="13" fill="#444">kallos</text>
</g>
<g transform="translate(815 370)">
<g transform="translate(0 100) scale(0.1 -0.1)"><line x1="250" y1="250" x2="750" y2="250" stroke="currentColor" stroke-width="60" stroke-linecap="square"/><line x1="750" y1="250" x2="750" y2="700" stroke="currentColor" stroke-width="60" stroke-linecap="square"/><line x1="750" y1="700" x2="250" y2="700" stroke="currentColor" stroke-width="60" stroke-linecap="square"/><line x1="250" y1="700" x2="250" y2="250" stroke="currentColor" stroke-width="60" stroke-linecap="square"/><polygon points="440,415 560,415 560,535 440,535" fill="currentColor"/></g>
<text x="50.0" y="120" text-anchor="middle" font-size="13" fill="#444">kalypt</text>
</g>
<g transform="translate(945 370)">
<g transform="translate(0 100) scale(0.1 -0.1)"><line x1="200" y1="250" x2="400" y2="250" stroke="currentColor" stroke-width="60" stroke-linecap="square"/><line x1="400" y1="250" x2="400" y2="400" stroke="currentColor" stroke-width="60" stroke-linecap="square"/><line x1="400" y1="400" x2="600" y2="400" stroke="currentColor" stroke-width="60" stroke-linecap="square"/><line x1="600" y1="400" x2="600" y2="550" stroke="currentColor" stroke-width="60" stroke-linecap="square"/><line x1="600" y1="550" x2="800" y2="550" stroke="currentColor" stroke-width="60" stroke-linecap="square"/><line x1="800" y1="550" x2="800" y2="700" stroke="currentColor" stroke-width="60" stroke-linecap="square"/></g>
<text x="50.0" y="120" text-anchor="middle" font-size="13" fill="#444">klimax</text>
</g>
<g transform="translate(35 520)">
<g transform="translate(0 100) scale(0.1 -0.1)"><line x1="250" y1="700" x2="400" y2="700" stroke="currentColor" stroke-width="60" stroke-linecap="square"/><line x1="500" y1="700" x2="650" y2="700" stroke="currentColor" stroke-width="60" stroke-linecap="square"/><line x1="750" y1="700" x2="750" y2="550" stroke="currentColor" stroke-width="60" stroke-linecap="square"/><line x1="750" y1="450" x2="750" y2="300" stroke="currentColor" stroke-width="60" stroke-linecap="square"/><line x1="750" y1="250" x2="600" y2="250" stroke="currentColor" stroke-width="60" stroke-linecap="square"/><line x1="500" y1="250" x2="350" y2="250" stroke="currentColor" stroke-width="60" stroke-linecap="square"/><line x1="250" y1="250" x2="250" y2="400" stroke="currentColor" stroke-width="60" stroke-linecap="square"/><line x1="250" y1="500" x2="250" y2="650" stroke="currentColor" stroke-width="60" stroke-linecap="square"/></g>
<text x="50.0" y="120" text-anchor="middle" font-size="13" fill="#444">lanthes</text>
</g>
<g transform="translate(165 520)">
<g transform="translate(0 100) scale(0.1 -0.1)"><line x1="400" y1="450" x2="450" y2="550" stroke="currentColor" stroke-width="60" stroke-linecap="square"/><line x1="450" y1="550" x2="550" y2="550" stroke="currentColor" stroke-width="60" stroke-linecap="square"/><line x1="550" y1="550" x2="600" y2="450" stroke="currentColor" stroke-width="60" stroke-linecap="square"/><line x1="600" y1="450" x2="550" y2="350" stroke="currentColor" stroke-width="60" stroke-linecap="square"/><line x1="550" y1="350" x2="450" y2="350" stroke="currentColor" stroke-width="60" stroke-linecap="square"/><line x1="450" y1="350" x2="400" y2="450" stroke="currentColor" stroke-width="60" stroke-linecap="square"/></g>
<text x="50.0" y="120" text-anchor="middle" font-size="13" fill="#444">ma</text>
</g>
<g transform="translate(295 520)">
<g transform="translate(0 100) scale(0.1 -0.1)"><line x1="400" y1="550" x2="400" y2="300" stroke="currentColor" stroke-width="60" stroke-linecap="square"/><line x1="400" y1="300" x2="600" y2="150" stroke="currentColor" stroke-width="60" stroke-linecap="square"/><polygon points="565,465 635,465 635,535 565,535" fill="currentColor"/></g>
<text x="50.0" y="120" text-anchor="middle" font-size="13" fill="#444">mance</text>
</g>
<g transform="translate(425 520)">
<g transform="translate(0 100) scale(0.1 -0.1)"><line x1="250" y1="450" x2="850" y2="450" stroke="currentColor" stroke-width="60" stroke-linecap="square"/><line x1="250" y1="450" x2="450" y2="650" stroke="currentColor" stroke-width="60" stroke-linecap="square"/><line x1="250" y1="450" x2="450" y2="250" stroke="currentColor" stroke-width="60" stroke-linecap="square"/></g>
<text x="50.0" y="120" text-anchor="middle" font-size="13" fill="#444">meta</text>
</g>
<g transform="translate(555 520)">
<g transform="translate(0 100) scale(0.1 -0.1)"><line x1="400" y1="500" x2="400" y2="300" stroke="currentColor" stroke-width="60" stroke-linecap="square"/><line x1="400" y1="300" x2="500" y2="200" stroke="currentColor" stroke-width="60" stroke-linecap="square"/><line x1="500" y1="200" x2="600" y2="300" stroke="currentColor" stroke-width="60" stroke-linecap="square"/></g>
<text x="50.0" y="120" text-anchor="middle" font-size="13" fill="#444">mia</text>
</g>
<g transform="translate(685 520)">
<g transform="translate(0 100) scale(0.1 -0.1)"><line x1="300" y1="700" x2="550" y2="750" stroke="currentColor" stroke-width="60" stroke-linecap="square"/><line x1="550" y1="750" x2="750" y2="500" stroke="currentColor" stroke-width="60" stroke-linecap="square"/><line x1="750" y1="500" x2="700" y2="250" stroke="currentColor" stroke-width="60" stroke-linecap="square"/><line x1="700" y1="250" x2="400" y2="200" stroke="currentColor" stroke-width="60" stroke-linecap="square"/><line x1="400" y1="200" x2="250" y2="400" stroke="currentColor" stroke-width="60" stroke-linecap="square"/><line x1="250" y1="400" x2="300" y2="700" stroke="currentColor" stroke-width="60" stroke-linecap="square"/></g>
<text x="50.0" y="120" text-anchor="middle" font-size="13" fill="#444">morphe</text>
</g>
<g transform="translate(815 520)">
<g transform="translate(0 100) scale(0.1 -0.1)"><line x1="500" y1="80" x2="500" y2="800" stroke="currentColor" stroke-width="60" stroke-linecap="square"/><line x1="200" y1="700" x2="800" y2="700" stroke="currentColor" stroke-width="60" stroke-linecap="square"/></g>
<text x="50.0" y="120" text-anchor="middle" font-size="13" fill="#444">ortho</text>
</g>
<g transform="translate(945 520)">
<g transform="translate(0 100) scale(0.1 -0.1)"><line x1="200" y1="600" x2="800" y2="600" stroke="currentColor" stroke-width="60" stroke-linecap="square"/><line x1="200" y1="300" x2="800" y2="300" stroke="currentColor" stroke-width="60" stroke-linecap="square"/><line x1="450" y1="450" x2="550" y2="450" stroke="currentColor" stroke-width="60" stroke-linecap="square"/><line x1="500" y1="500" x2="550" y2="450" stroke="currentColor" stroke-width="60" stroke-linecap="square"/><line x1="500" y1="400" x2="550" y2="450" stroke="currentColor" stroke-width="60" stroke-linecap="square"/></g>
<text x="50.0" y="120" text-anchor="middle" font-size="13" fill="#444">parallax</text>
</g>
<g transform="translate(35 670)">
<g transform="translate(0 100) scale(0.1 -0.1)"><line x1="500" y1="200" x2="200" y2="700" stroke="currentColor" stroke-width="60" stroke-linecap="square"/><line x1="500" y1="200" x2="500" y2="800" stroke="currentColor" stroke-width="60" stroke-linecap="square"/><line x1="500" y1="200" x2="800" y2="700" stroke="currentColor" stroke-width="60" stroke-linecap="square"/><line x1="500" y1="200" x2="150" y2="400" stroke="currentColor" stroke-width="60" stroke-linecap="square"/><line x1="500" y1="200" x2="850" y2="400" stroke="currentColor" stroke-width="60" stroke-linecap="square"/></g>
<text x="50.0" y="120" text-anchor="middle" font-size="13" fill="#444">phanes</text>
</g>
<g transform="translate(165 670)">
<g transform="translate(0 100) scale(0.1 -0.1)"><line x1="200" y1="400" x2="700" y2="400" stroke="currentColor" stroke-width="60" stroke-linecap="square"/><line x1="700" y1="400" x2="700" y2="650" stroke="currentColor" stroke-width="60" stroke-linecap="square"/></g>
<text x="50.0" y="120" text-anchor="middle" font-size="13" fill="#444">phora</text>
</g>
<g transform="translate(295 670)">
<g transform="translate(0 100) scale(0.1 -0.1)"><line x1="250" y1="450" x2="400" y2="600" stroke="currentColor" stroke-width="60" stroke-linecap="square"/><line x1="400" y1="600" x2="600" y2="600" stroke="currentColor" stroke-width="60" stroke-linecap="square"/><line x1="600" y1="600" x2="750" y2="450" stroke="currentColor" stroke-width="60" stroke-linecap="square"/><line x1="750" y1="450" x2="600" y2="300" stroke="currentColor" stroke-width="60" stroke-linecap="square"/><line x1="600" y1="300" x2="400" y2="300" stroke="currentColor" stroke-width="60" stroke-linecap="square"/><line x1="400" y1="300" x2="250" y2="450" stroke="currentColor" stroke-width="60" stroke-linecap="square"/></g>
<text x="50.0" y="120" text-anchor="middle" font-size="13" fill="#444">seem</text>
</g>
<g transform="translate(425 670)">
<g transform="translate(0 100) scale(0.1 -0.1)"><line x1="300" y1="300" x2="700" y2="300" stroke="currentColor" stroke-width="60" stroke-linecap="square"/><line x1="700" y1="300" x2="700" y2="700" stroke="currentColor" stroke-width="60" stroke-linecap="square"/><line x1="700" y1="700" x2="300" y2="700" stroke="currentColor" stroke-width="60" stroke-linecap="square"/><line x1="300" y1="700" x2="300" y2="300" stroke="currentColor" stroke-width="60" stroke-linecap="square"/><polygon points="430,430 570,430 570,570 430,570" fill="currentColor"/></g>
<text x="50.0" y="120" text-anchor="middle" font-size="13" fill="#444">sema</text>
</g>
<g transform="translate(555 670)">
<g transform="translate(0 100) scale(0.1 -0.1)"><line x1="500" y1="300" x2="500" y2="650" stroke="currentColor" stroke-width="60" stroke-linecap="square"/><line x1="400" y1="300" x2="600" y2="300" stroke="currentColor" stroke-width="60" stroke-linecap="square"/></g>
<text x="50.0" y="120" text-anchor="middle" font-size="13" fill="#444">sis</text>
</g>
<g transform="translate(685 670)">
<g transform="translate(0 100) scale(0.1 -0.1)"><line x1="250" y1="250" x2="750" y2="700" stroke="currentColor" stroke-width="60" stroke-linecap="square"/><line x1="750" y1="250" x2="250" y2="700" stroke="currentColor" stroke-width="60" stroke-linecap="square"/></g>
<text x="50.0" y="120" text-anchor="middle" font-size="13" fill="#444">sleight</text>
</g>
<g transform="translate(815 670)">
<g transform="translate(0 100) scale(0.1 -0.1)"><line x1="350" y1="200" x2="350" y2="700" stroke="currentColor" stroke-width="60" stroke-linecap="square"/><line x1="650" y1="200" x2="650" y2="700" stroke="currentColor" stroke-width="60" stroke-linecap="square"/><line x1="200" y1="200" x2="800" y2="200" stroke="currentColor" stroke-width="60" stroke-linecap="square"/></g>
<text x="50.0" y="120" text-anchor="middle" font-size="13" fill="#444">stasis</text>
</g>
<g transform="translate(945 670)">
<g transform="translate(0 100) scale(0.1 -0.1)"><polygon points="410,360 590,360 590,540 410,540" fill="currentColor"/></g>
<text x="50.0" y="120" text-anchor="middle" font-size="13" fill="#444">stix</text>
</g>
<g transform="translate(35 820)">
<g transform="translate(0 100) scale(0.1 -0.1)"><line x1="800" y1="450" x2="750" y2="700" stroke="currentColor" stroke-width="60" stroke-linecap="square"/><line x1="750" y1="700" x2="500" y2="800" stroke="currentColor" stroke-width="60" stroke-linecap="square"/><line x1="500" y1="800" x2="250" y2="700" stroke="currentColor" stroke-width="60" stroke-linecap="square"/><line x1="250" y1="700" x2="200" y2="450" stroke="currentColor" stroke-width="60" stroke-linecap="square"/><line x1="200" y1="450" x2="250" y2="250" stroke="currentColor" stroke-width="60" stroke-linecap="square"/><line x1="250" y1="250" x2="500" y2="200" stroke="currentColor" stroke-width="60" stroke-linecap="square"/><line x1="500" y1="200" x2="700" y2="250" stroke="currentColor" stroke-width="60" stroke-linecap="square"/><line x1="700" y1="250" x2="700" y2="400" stroke="currentColor" stroke-width="60" stroke-linecap="square"/></g>
<text x="50.0" y="120" text-anchor="middle" font-size="13" fill="#444">strophe</text>
</g>
<g transform="translate(165 820)">
<g transform="translate(0 100) scale(0.1 -0.1)"><line x1="200" y1="700" x2="500" y2="200" stroke="currentColor" stroke-width="60" stroke-linecap="square"/><line x1="800" y1="700" x2="500" y2="200" stroke="currentColor" stroke-width="60" stroke-linecap="square"/></g>
<text x="50.0" y="120" text-anchor="middle" font-size="13" fill="#444">syn</text>
</g>
<g transform="translate(295 820)">
<g transform="translate(0 100) scale(0.1 -0.1)"><line x1="200" y1="450" x2="400" y2="600" stroke="currentColor" stroke-width="60" stroke-linecap="square"/><line x1="400" y1="600" x2="600" y2="600" stroke="currentColor" stroke-width="60" stroke-linecap="square"/><line x1="600" y1="600" x2="800" y2="450" stroke="currentColor" stroke-width="60" stroke-linecap="square"/><line x1="800" y1="450" x2="600" y2="300" stroke="currentColor" stroke-width="60" stroke-linecap="square"/><line x1="600" y1="300" x2="400" y2="300" stroke="currentColor" stroke-width="60" stroke-linecap="square"/><line x1="400" y1="300" x2="200" y2="450" stroke="currentColor" stroke-width="60" stroke-linecap="square"/><polygon points="420,370 580,370 580,530 420,530" fill="currentColor"/></g>
<text x="50.0" y="120" text-anchor="middle" font-size="13" fill="#444">thauma</text>
</g>
<g transform="translate(425 820)">
<g transform="translate(0 100) scale(0.1 -0.1)"><line x1="500" y1="100" x2="500" y2="700" stroke="currentColor" stroke-width="60" stroke-linecap="square"/><line x1="200" y1="400" x2="800" y2="400" stroke="currentColor" stroke-width="60" stroke-linecap="square"/></g>
<text x="50.0" y="120" text-anchor="middle" font-size="13" fill="#444">veri</text>
</g>
<g transform="translate(555 820)">
<g transform="translate(0 100) scale(0.1 -0.1)"><line x1="400" y1="700" x2="500" y2="500" stroke="currentColor" stroke-width="60" stroke-linecap="square"/><line x1="600" y1="700" x2="500" y2="500" stroke="currentColor" stroke-width="60" stroke-linecap="square"/><line x1="500" y1="500" x2="500" y2="300" stroke="currentColor" stroke-width="60" stroke-linecap="square"/></g>
<text x="50.0" y="120" text-anchor="middle" font-size="13" fill="#444">y</text>
</g>
</svg>