<svg xmlns="http://www.w3.org/2000/svg" viewBox="0 0 1400 1880" width="1400" height="1880" style="font-family: sans-serif; color: #111;">
<rect width="1400" height="1880" fill="#fafaf7"/>
<text x="700.0" y="35" text-anchor="middle" font-size="22" font-weight="bold">The YOUSPEAK Canon — 16 standing words</text>
<text x="700.0" y="58" text-anchor="middle" font-size="12" fill="#666">each word composed of its morpheme-glyphs; Latin transliteration beneath</text>
<g transform="translate(100 90)">
<g transform="translate(0 80) scale(0.08 -0.08)"><line x1="150" y1="700" x2="850" y2="700" stroke="currentColor" stroke-width="60" stroke-linecap="square"/><line x1="850" y1="700" x2="500" y2="150" stroke="currentColor" stroke-width="60" stroke-linecap="square"/><line x1="500" y1="150" x2="150" y2="700" stroke="currentColor" stroke-width="60" stroke-linecap="square"/><line x1="80" y1="430" x2="920" y2="430" stroke="currentColor" stroke-width="60" stroke-linecap="square"/></g>
</g>
<g transform="translate(188 90)">
<g transform="translate(0 80) scale(0.08 -0.08)"><line x1="500" y1="80" x2="500" y2="700" stroke="currentColor" stroke-width="60" stroke-linecap="square"/><line x1="200" y1="500" x2="500" y2="780" stroke="currentColor" stroke-width="60" stroke-linecap="square"/><line x1="800" y1="500" x2="500" y2="780" stroke="currentColor" stroke-width="60" stroke-linecap="square"/></g>
</g>
<text x="700" y="125" font-size="18" font-weight="500" fill="#222">doxakallos</text>
<text x="700" y="150" font-size="13" fill="#666" font-style="italic">the uncreated beauty-quality of GoD</text>
<g transform="translate(100 200)">
<g transform="translate(0 80) scale(0.08 -0.08)"><line x1="500" y1="80" x2="500" y2="700" stroke="currentColor" stroke-width="60" stroke-linecap="square"/><line x1="200" y1="500" x2="500" y2="780" stroke="currentColor" stroke-width="60" stroke-linecap="square"/><line x1="800" y1="500" x2="500" y2="780" stroke="currentColor" stroke-width="60" stroke-linecap="square"/></g>
</g>
<g transform="translate(188 200)">
<g transform="translate(0 80) scale(0.08 -0.08)"><line x1="150" y1="700" x2="850" y2="700" stroke="currentColor" stroke-width="60" stroke-linecap="square"/><line x1="850" y1="700" x2="500" y2="150" stroke="currentColor" stroke-width="60" stroke-linecap="square"/><line x1="500" y1="150" x2="150" y2="700" stroke="currentColor" stroke-width="60" stroke-linecap="square"/><line x1="80" y1="430" x2="920" y2="430" stroke="currentColor" stroke-width="60" stroke-linecap="square"/></g>
</g>
<text x="700" y="235" font-size="18" font-weight="500" fill="#222">kallodoxa</text>
<text x="700" y="260" font-size="13" fill="#666" font-style="italic">the glory-quality of divine beauty</text>
<g transform="translate(100 310)">
<g transform="translate(0 80) scale(0.08 -0.08)"><line x1="500" y1="80" x2="500" y2="800" stroke="currentColor" stroke-width="60" stroke-linecap="square"/><line x1="200" y1="700" x2="800" y2="700" stroke="currentColor" stroke-width="60" stroke-linecap="square"/></g>
</g>
<g transform="translate(188 310)">
<g transform="translate(0 80) scale(0.08 -0.08)"><line x1="500" y1="200" x2="200" y2="700" stroke="currentColor" stroke-width="60" stroke-linecap="square"/><line x1="500" y1="200" x2="500" y2="800" stroke="currentColor" stroke-width="60" stroke-linecap="square"/><line x1="500" y1="200" x2="800" y2="700" stroke="currentColor" stroke-width="60" stroke-linecap="square"/><line x1="500" y1="200" x2="150" y2="400" stroke="currentColor" stroke-width="60" stroke-linecap="square"/><line x1="500" y1="200" x2="850" y2="400" stroke="currentColor" stroke-width="60" stroke-linecap="square"/></g>
</g>
<text x="700" y="345" font-size="18" font-weight="500" fill="#222">orthophanes</text>
<text x="700" y="370" font-size="13" fill="#666" font-style="italic">the rightness-made-visible</text>
<g transform="translate(100 420)">
<g transform="translate(0 80) scale(0.08 -0.08)"><line x1="150" y1="700" x2="850" y2="700" stroke="currentColor" stroke-width="60" stroke-linecap="square"/><line x1="850" y1="700" x2="500" y2="150" stroke="currentColor" stroke-width="60" stroke-linecap="square"/><line x1="500" y1="150" x2="150" y2="700" stroke="currentColor" stroke-width="60" stroke-linecap="square"/><line x1="80" y1="430" x2="920" y2="430" stroke="currentColor" stroke-width="60" stroke-linecap="square"/></g>
</g>
<g transform="translate(188 420)">
<g transform="translate(0 80) scale(0.08 -0.08)"><line x1="400" y1="750" x2="400" y2="450" stroke="currentColor" stroke-width="60" stroke-linecap="square"/><line x1="400" y1="450" x2="650" y2="200" stroke="currentColor" stroke-width="60" stroke-linecap="square"/><polygon points="340,390 460,390 460,510 340,510" fill="currentColor"/></g>
</g>
<text x="700" y="455" font-size="18" font-weight="500" fill="#222">doxalgia</text>
<text x="700" y="480" font-size="13" fill="#666" font-style="italic">the ache at beholding</text>
<g transform="translate(100 530)">
<g transform="translate(0 80) scale(0.08 -0.08)"><line x1="500" y1="250" x2="500" y2="650" stroke="currentColor" stroke-width="60" stroke-linecap="square"/><line x1="500" y1="650" x2="400" y2="550" stroke="currentColor" stroke-width="60" stroke-linecap="square"/><line x1="500" y1="650" x2="600" y2="550" stroke="currentColor" stroke-width="60" stroke-linecap="square"/></g>
</g>
<g transform="translate(188 530)">
<g transform="translate(0 80) scale(0.08 -0.08)"><line x1="200" y1="750" x2="800" y2="750" stroke="currentColor" stroke-width="60" stroke-linecap="square"/><line x1="200" y1="250" x2="800" y2="250" stroke="currentColor" stroke-width="60" stroke-linecap="square"/><line x1="500" y1="750" x2="500" y2="250" stroke="currentColor" stroke-width="60" stroke-linecap="square"/></g>
</g>
<g transform="translate(276 530)">
<g transform="translate(0 80) scale(0.08 -0.08)"><line x1="350" y1="200" x2="350" y2="700" stroke="currentColor" stroke-width="60" stroke-linecap="square"/><line x1="650" y1="200" x2="650" y2="700" stroke="currentColor" stroke-width="60" stroke-linecap="square"/><line x1="200" y1="200" x2="800" y2="200" stroke="currentColor" stroke-width="60" stroke-linecap="square"/></g>
</g>
<text x="700" y="565" font-size="18" font-weight="500" fill="#222">anagnoristasis</text>
<text x="700" y="590" font-size="13" fill="#666" font-style="italic">recognition standing still</text>
<g transform="translate(100 640)">
<g transform="translate(0 80) scale(0.08 -0.08)"><line x1="250" y1="450" x2="850" y2="450" stroke="currentColor" stroke-width="60" stroke-linecap="square"/><line x1="250" y1="450" x2="450" y2="650" stroke="currentColor" stroke-width="60" stroke-linecap="square"/><line x1="250" y1="450" x2="450" y2="250" stroke="currentColor" stroke-width="60" stroke-linecap="square"/></g>
</g>
<g transform="translate(188 640)">
<g transform="translate(0 80) scale(0.08 -0.08)"><line x1="800" y1="450" x2="750" y2="700" stroke="currentColor" stroke-width="60" stroke-linecap="square"/><line x1="750" y1="700" x2="500" y2="800" stroke="currentColor" stroke-width="60" stroke-linecap="square"/><line x1="500" y1="800" x2="250" y2="700" stroke="currentColor" stroke-width="60" stroke-linecap="square"/><line x1="250" y1="700" x2="200" y2="450" stroke="currentColor" stroke-width="60" stroke-linecap="square"/><line x1="200" y1="450" x2="250" y2="250" stroke="currentColor" stroke-width="60" stroke-linecap="square"/><line x1="250" y1="250" x2="500" y2="200" stroke="currentColor" stroke-width="60" stroke-linecap="square"/><line x1="500" y1="200" x2="700" y2="250" stroke="currentColor" stroke-width="60" stroke-linecap="square"/><line x1="700" y1="250" x2="700" y2="400" stroke="currentColor" stroke-width="60" stroke-linecap="square"/></g>
</g>
<g transform="translate(276 640)">
<g transform="translate(0 80) scale(0.08 -0.08)"><line x1="500" y1="300" x2="500" y2="650" stroke="currentColor" stroke-width="60" stroke-linecap="square"/><line x1="400" y1="300" x2="600" y2="300" stroke="currentColor" stroke-width="60" stroke-linecap="square"/></g>
</g>
<text x="700" y="675" font-size="18" font-weight="500" fill="#222">metastrophesis</text>
<text x="700" y="700" font-size="13" fill="#666" font-style="italic">the turning-kept</text>
<g transform="translate(100 750)">
<g transform="translate(0 80) scale(0.08 -0.08)"><line x1="350" y1="450" x2="450" y2="600" stroke="currentColor" stroke-width="60" stroke-linecap="square"/><line x1="450" y1="600" x2="550" y2="600" stroke="currentColor" stroke-width="60" stroke-linecap="square"/><line x1="550" y1="600" x2="650" y2="450" stroke="currentColor" stroke-width="60" stroke-linecap="square"/><line x1="650" y1="450" x2="550" y2="300" stroke="currentColor" stroke-width="60" stroke-linecap="square"/><line x1="550" y1="300" x2="450" y2="300" stroke="currentColor" stroke-width="60" stroke-linecap="square"/><line x1="450" y1="300" x2="350" y2="450" stroke="currentColor" stroke-width="60" stroke-linecap="square"/><line x1="250" y1="250" x2="750" y2="650" stroke="currentColor" stroke-width="60" stroke-linecap="square"/></g>
</g>
<g transform="translate(188 750)">
<g transform="translate(0 80) scale(0.08 -0.08)"><line x1="200" y1="450" x2="400" y2="600" stroke="currentColor" stroke-width="60" stroke-linecap="square"/><line x1="400" y1="600" x2="600" y2="600" stroke="currentColor" stroke-width="60" stroke-linecap="square"/><line x1="600" y1="600" x2="800" y2="450" stroke="currentColor" stroke-width="60" stroke-linecap="square"/><line x1="800" y1="450" x2="600" y2="300" stroke="currentColor" stroke-width="60" stroke-linecap="square"/><line x1="600" y1="300" x2="400" y2="300" stroke="currentColor" stroke-width="60" stroke-linecap="square"/><line x1="400" y1="300" x2="200" y2="450" stroke="currentColor" stroke-width="60" stroke-linecap="square"/><polygon points="420,370 580,370 580,530 420,530" fill="currentColor"/></g>
</g>
<g transform="translate(276 750)">
<g transform="translate(0 80) scale(0.08 -0.08)"><line x1="400" y1="450" x2="450" y2="550" stroke="currentColor" stroke-width="60" stroke-linecap="square"/><line x1="450" y1="550" x2="550" y2="550" stroke="currentColor" stroke-width="60" stroke-linecap="square"/><line x1="550" y1="550" x2="600" y2="450" stroke="currentColor" stroke-width="60" stroke-linecap="square"/><line x1="600" y1="450" x2="550" y2="350" stroke="currentColor" stroke-width="60" stroke-linecap="square"/><line x1="550" y1="350" x2="450" y2="350" stroke="currentColor" stroke-width="60" stroke-linecap="square"/><line x1="450" y1="350" x2="400" y2="450" stroke="currentColor" stroke-width="60" stroke-linecap="square"/></g>
</g>
<text x="700" y="785" font-size="18" font-weight="500" fill="#222">athaumasma</text>
<text x="700" y="810" font-size="13" fill="#666" font-style="italic">the no-longer-wondered trace</text>
<g transform="translate(100 860)">
<g transform="translate(0 80) scale(0.08 -0.08)"><line x1="200" y1="700" x2="500" y2="200" stroke="currentColor" stroke-width="60" stroke-linecap="square"/><line x1="800" y1="700" x2="500" y2="200" stroke="currentColor" stroke-width="60" stroke-linecap="square"/></g>
</g>
<g transform="translate(188 860)">
<g transform="translate(0 80) scale(0.08 -0.08)"><line x1="200" y1="400" x2="700" y2="400" stroke="currentColor" stroke-width="60" stroke-linecap="square"/><line x1="700" y1="400" x2="700" y2="650" stroke="currentColor" stroke-width="60" stroke-linecap="square"/></g>
</g>
<text x="700" y="895" font-size="18" font-weight="500" fill="#222">synophora</text>
<text x="700" y="920" font-size="13" fill="#666" font-style="italic">shared-witness</text>
<g transform="translate(100 970)">
<g transform="translate(0 80) scale(0.08 -0.08)"><line x1="500" y1="80" x2="500" y2="700" stroke="currentColor" stroke-width="60" stroke-linecap="square"/><line x1="200" y1="500" x2="500" y2="780" stroke="currentColor" stroke-width="60" stroke-linecap="square"/><line x1="800" y1="500" x2="500" y2="780" stroke="currentColor" stroke-width="60" stroke-linecap="square"/></g>
</g>
<g transform="translate(188 970)">
<g transform="translate(0 80) scale(0.08 -0.08)"><line x1="500" y1="200" x2="200" y2="700" stroke="currentColor" stroke-width="60" stroke-linecap="square"/><line x1="500" y1="200" x2="500" y2="800" stroke="currentColor" stroke-width="60" stroke-linecap="square"/><line x1="500" y1="200" x2="800" y2="700" stroke="currentColor" stroke-width="60" stroke-linecap="square"/><line x1="500" y1="200" x2="150" y2="400" stroke="currentColor" stroke-width="60" stroke-linecap="square"/><line x1="500" y1="200" x2="850" y2="400" stroke="currentColor" stroke-width="60" stroke-linecap="square"/></g>
</g>
<text x="700" y="1005" font-size="18" font-weight="500" fill="#222">kallophanes</text>
<text x="700" y="1030" font-size="13" fill="#666" font-style="italic">beauty-specific appearing</text>
<g transform="translate(100 1080)">
<g transform="translate(0 80) scale(0.08 -0.08)"><line x1="250" y1="500" x2="300" y2="250" stroke="currentColor" stroke-width="60" stroke-linecap="square"/><line x1="300" y1="250" x2="700" y2="250" stroke="currentColor" stroke-width="60" stroke-linecap="square"/><line x1="700" y1="250" x2="750" y2="500" stroke="currentColor" stroke-width="60" stroke-linecap="square"/><line x1="500" y1="550" x2="500" y2="750" stroke="currentColor" stroke-width="60" stroke-linecap="square"/></g>
</g>
<g transform="translate(188 1080)">
<g transform="translate(0 80) scale(0.08 -0.08)"><line x1="400" y1="550" x2="400" y2="300" stroke="currentColor" stroke-width="60" stroke-linecap="square"/><line x1="400" y1="300" x2="600" y2="150" stroke="currentColor" stroke-width="60" stroke-linecap="square"/></g>
</g>
<text x="700" y="1115" font-size="18" font-weight="500" fill="#222">dokimance</text>
<text x="700" y="1140" font-size="13" fill="#666" font-style="italic">testing-that-makes-real</text>
<g transform="translate(100 1190)">
<g transform="translate(0 80) scale(0.08 -0.08)"><line x1="500" y1="750" x2="800" y2="550" stroke="currentColor" stroke-width="60" stroke-linecap="square"/><line x1="800" y1="550" x2="680" y2="250" stroke="currentColor" stroke-width="60" stroke-linecap="square"/><line x1="680" y1="250" x2="320" y2="250" stroke="currentColor" stroke-width="60" stroke-linecap="square"/><line x1="320" y1="250" x2="200" y2="550" stroke="currentColor" stroke-width="60" stroke-linecap="square"/><line x1="200" y1="550" x2="500" y2="750" stroke="currentColor" stroke-width="60" stroke-linecap="square"/></g>
</g>
<g transform="translate(188 1190)">
<g transform="translate(0 80) scale(0.08 -0.08)"><line x1="400" y1="500" x2="400" y2="300" stroke="currentColor" stroke-width="60" stroke-linecap="square"/><line x1="400" y1="300" x2="600" y2="150" stroke="currentColor" stroke-width="60" stroke-linecap="square"/><line x1="500" y1="550" x2="500" y2="750" stroke="currentColor" stroke-width="60" stroke-linecap="square"/></g>
</g>
<text x="700" y="1225" font-size="18" font-weight="500" fill="#222">artiance</text>
<text x="700" y="1250" font-size="13" fill="#666" font-style="italic">pre-domain luminous-rightness</text>
<g transform="translate(100 1300)">
<g transform="translate(0 80) scale(0.08 -0.08)"><line x1="500" y1="100" x2="500" y2="700" stroke="currentColor" stroke-width="60" stroke-linecap="square"/><line x1="200" y1="400" x2="800" y2="400" stroke="currentColor" stroke-width="60" stroke-linecap="square"/></g>
</g>
<g transform="translate(188 1300)">
<g transform="translate(0 80) scale(0.08 -0.08)"><line x1="250" y1="250" x2="750" y2="700" stroke="currentColor" stroke-width="60" stroke-linecap="square"/><line x1="750" y1="250" x2="250" y2="700" stroke="currentColor" stroke-width="60" stroke-linecap="square"/></g>
</g>
<text x="700" y="1335" font-size="18" font-weight="500" fill="#222">verisleight</text>
<text x="700" y="1360" font-size="13" fill="#666" font-style="italic">truth that produces false conclusions</text>
<g transform="translate(100 1410)">
<g transform="translate(0 80) scale(0.08 -0.08)"><line x1="400" y1="700" x2="350" y2="800" stroke="currentColor" stroke-width="60" stroke-linecap="square"/><line x1="500" y1="730" x2="500" y2="830" stroke="currentColor" stroke-width="60" stroke-linecap="square"/><line x1="600" y1="700" x2="650" y2="800" stroke="currentColor" stroke-width="60" stroke-linecap="square"/><line x1="350" y1="450" x2="450" y2="600" stroke="currentColor" stroke-width="60" stroke-linecap="square"/><line x1="450" y1="600" x2="550" y2="600" stroke="currentColor" stroke-width="60" stroke-linecap="square"/><line x1="550" y1="600" x2="650" y2="450" stroke="currentColor" stroke-width="60" stroke-linecap="square"/><line x1="650" y1="450" x2="550" y2="300" stroke="currentColor" stroke-width="60" stroke-linecap="square"/><line x1="550" y1="300" x2="450" y2="300" stroke="currentColor" stroke-width="60" stroke-linecap="square"/><line x1="450" y1="300" x2="350" y2="450" stroke="currentColor" stroke-width="60" stroke-linecap="square"/></g>
</g>
<g transform="translate(188 1410)">
<g transform="translate(0 80) scale(0.08 -0.08)"><line x1="400" y1="500" x2="400" y2="300" stroke="currentColor" stroke-width="60" stroke-linecap="square"/><line x1="400" y1="300" x2="550" y2="200" stroke="currentColor" stroke-width="60" stroke-linecap="square"/></g>
</g>
<text x="700" y="1445" font-size="18" font-weight="500" fill="#222">candence</text>
<text x="700" y="1470" font-size="13" fill="#666" font-style="italic">warm clarity</text>
<g transform="translate(100 1520)">
<g transform="translate(0 80) scale(0.08 -0.08)"><line x1="250" y1="250" x2="400" y2="450" stroke="currentColor" stroke-width="60" stroke-linecap="square"/><line x1="400" y1="450" x2="250" y2="650" stroke="currentColor" stroke-width="60" stroke-linecap="square"/><line x1="750" y1="250" x2="600" y2="450" stroke="currentColor" stroke-width="60" stroke-linecap="square"/><line x1="600" y1="450" x2="750" y2="650" stroke="currentColor" stroke-width="60" stroke-linecap="square"/></g>
</g>
<g transform="translate(188 1520)">
<g transform="translate(0 80) scale(0.08 -0.08)"><line x1="250" y1="650" x2="450" y2="650" stroke="currentColor" stroke-width="60" stroke-linecap="square"/><line x1="450" y1="650" x2="450" y2="250" stroke="currentColor" stroke-width="60" stroke-linecap="square"/><line x1="450" y1="250" x2="250" y2="250" stroke="currentColor" stroke-width="60" stroke-linecap="square"/><line x1="750" y1="650" x2="550" y2="650" stroke="currentColor" stroke-width="60" stroke-linecap="square"/><line x1="550" y1="650" x2="550" y2="250" stroke="currentColor" stroke-width="60" stroke-linecap="square"/><line x1="550" y1="250" x2="750" y2="250" stroke="currentColor" stroke-width="60" stroke-linecap="square"/></g>
</g>
<g transform="translate(276 1520)">
<g transform="translate(0 80) scale(0.08 -0.08)"><line x1="400" y1="500" x2="400" y2="300" stroke="currentColor" stroke-width="60" stroke-linecap="square"/><line x1="400" y1="300" x2="700" y2="250" stroke="currentColor" stroke-width="60" stroke-linecap="square"/></g>
</g>
<text x="700" y="1555" font-size="18" font-weight="500" fill="#222">complerescence</text>
<text x="700" y="1580" font-size="13" fill="#666" font-style="italic">mutual right-placement event</text>
<g transform="translate(100 1630)">
<g transform="translate(0 80) scale(0.08 -0.08)"><line x1="350" y1="100" x2="350" y2="750" stroke="currentColor" stroke-width="60" stroke-linecap="square"/><line x1="650" y1="100" x2="650" y2="750" stroke="currentColor" stroke-width="60" stroke-linecap="square"/></g>
</g>
<g transform="translate(188 1630)">
<g transform="translate(0 80) scale(0.08 -0.08)"><line x1="300" y1="300" x2="700" y2="300" stroke="currentColor" stroke-width="60" stroke-linecap="square"/><line x1="700" y1="300" x2="700" y2="700" stroke="currentColor" stroke-width="60" stroke-linecap="square"/><line x1="700" y1="700" x2="300" y2="700" stroke="currentColor" stroke-width="60" stroke-linecap="square"/><line x1="300" y1="700" x2="300" y2="300" stroke="currentColor" stroke-width="60" stroke-linecap="square"/><polygon points="430,430 570,430 570,570 430,570" fill="currentColor"/></g>
</g>
<g transform="translate(276 1630)">
<g transform="translate(0 80) scale(0.08 -0.08)"><line x1="400" y1="700" x2="500" y2="500" stroke="currentColor" stroke-width="60" stroke-linecap="square"/><line x1="600" y1="700" x2="500" y2="500" stroke="currentColor" stroke-width="60" stroke-linecap="square"/><line x1="500" y1="500" x2="500" y2="300" stroke="currentColor" stroke-width="60" stroke-linecap="square"/></g>
</g>
<text x="700" y="1665" font-size="18" font-weight="500" fill="#222">diplosemy</text>
<text x="700" y="1690" font-size="13" fill="#666" font-style="italic">engineered-duality of meaning</text>
<g transform="translate(100 1740)">
<g transform="translate(0 80) scale(0.08 -0.08)"><line x1="500" y1="100" x2="500" y2="700" stroke="currentColor" stroke-width="60" stroke-linecap="square"/><line x1="200" y1="400" x2="800" y2="400" stroke="currentColor" stroke-width="60" stroke-linecap="square"/></g>
</g>
<g transform="translate(188 1740)">
<g transform="translate(0 80) scale(0.08 -0.08)"><line x1="250" y1="450" x2="400" y2="600" stroke="currentColor" stroke-width="60" stroke-linecap="square"/><line x1="400" y1="600" x2="600" y2="600" stroke="currentColor" stroke-width="60" stroke-linecap="square"/><line x1="600" y1="600" x2="750" y2="450" stroke="currentColor" stroke-width="60" stroke-linecap="square"/><line x1="750" y1="450" x2="600" y2="300" stroke="currentColor" stroke-width="60" stroke-linecap="square"/><line x1="600" y1="300" x2="400" y2="300" stroke="currentColor" stroke-width="60" stroke-linecap="square"/><line x1="400" y1="300" x2="250" y2="450" stroke="currentColor" stroke-width="60" stroke-linecap="square"/></g>
</g>
<text x="700" y="1775" font-size="18" font-weight="500" fill="#222">veriseem</text>
<text x="700" y="1800" font-size="13" fill="#666" font-style="italic">truth-seeming without truth-substance</text>
</svg>