<svg xmlns="http://www.w3.org/2000/svg" viewBox="0 0 1200 2120" width="1200" height="2120" style="font-family: -apple-system, sans-serif;">
<rect width="1200" height="2120" fill="#fafaf7"/>
<text x="600.0" y="35" text-anchor="middle" font-size="22" font-weight="bold">v0 vs v1 — feature encoding added</text>
<text x="600.0" y="58" text-anchor="middle" font-size="12" fill="#666">left: v0 (identity only) · right: v1 (identity + donor sigil + domain-family shape + class-mark)</text>
<text x="250" y="90" text-anchor="middle" font-size="12" fill="#888">v0 (no features)</text>
<text x="550" y="90" text-anchor="middle" font-size="12" fill="#888">v1 (feature-encoded)</text>
<text x="850" y="90" text-anchor="middle" font-size="12" fill="#888">metadata</text>
<g transform="translate(180.0 110)" color="#4a7a4a">
<g transform="translate(0 140) scale(0.14 -0.14)"><line x1="150" y1="700" x2="850" y2="700" stroke="currentColor" stroke-width="60" stroke-linecap="square"/><line x1="850" y1="700" x2="500" y2="150" stroke="currentColor" stroke-width="60" stroke-linecap="square"/><line x1="500" y1="150" x2="150" y2="700" stroke="currentColor" stroke-width="60" stroke-linecap="square"/><line x1="80" y1="430" x2="920" y2="430" stroke="currentColor" stroke-width="60" stroke-linecap="square"/></g>
</g>
<g transform="translate(480.0 110)" color="#222">
<g transform="translate(0 140) scale(0.14 -0.14)"><line x1="200" y1="680" x2="800" y2="680" stroke="currentColor" stroke-width="80" stroke-linecap="square"/><line x1="800" y1="680" x2="500" y2="230" stroke="currentColor" stroke-width="80" stroke-linecap="square"/><line x1="500" y1="230" x2="200" y2="680" stroke="currentColor" stroke-width="80" stroke-linecap="square"/><line x1="500" y1="600" x2="500" y2="300" stroke="currentColor" stroke-width="80" stroke-linecap="square"/><line x1="350" y1="590" x2="500" y2="350" stroke="currentColor" stroke-width="80" stroke-linecap="square"/><line x1="650" y1="590" x2="500" y2="350" stroke="currentColor" stroke-width="80" stroke-linecap="square"/><polygon points="115,815 185,815 185,885 115,885" fill="currentColor"/></g>
</g>
<text x="800" y="140" font-size="15" font-weight="500" fill="#222">doxa</text>
<text x="800" y="165" font-size="12" fill="#666">donor tongue: <tspan fill="#444" font-weight="500">Greek</tspan></text>
<text x="800" y="185" font-size="12" fill="#666">semantic domain: <tspan fill="#8a6a85" font-weight="500">weight+light</tspan></text>
<text x="800" y="205" font-size="12" fill="#666">morpheme class: <tspan fill="#444" font-weight="500">content</tspan></text>
<text x="800" y="235" font-size="10" fill="#999" font-style="italic">sigil: Greek | class-mark: content</text>
<line x1="60" y1="295" x2="1140" y2="295" stroke="#e6e3da" stroke-width="1"/>
<g transform="translate(180.0 310)" color="#4a7a4a">
<g transform="translate(0 140) scale(0.14 -0.14)"><line x1="500" y1="80" x2="500" y2="700" stroke="currentColor" stroke-width="60" stroke-linecap="square"/><line x1="200" y1="500" x2="500" y2="780" stroke="currentColor" stroke-width="60" stroke-linecap="square"/><line x1="800" y1="500" x2="500" y2="780" stroke="currentColor" stroke-width="60" stroke-linecap="square"/></g>
</g>
<g transform="translate(480.0 310)" color="#222">
<g transform="translate(0 140) scale(0.14 -0.14)"><line x1="500" y1="200" x2="500" y2="680" stroke="currentColor" stroke-width="80" stroke-linecap="square"/><line x1="500" y1="680" x2="280" y2="480" stroke="currentColor" stroke-width="80" stroke-linecap="square"/><line x1="500" y1="680" x2="720" y2="480" stroke="currentColor" stroke-width="80" stroke-linecap="square"/><line x1="280" y1="480" x2="220" y2="300" stroke="currentColor" stroke-width="80" stroke-linecap="square"/><line x1="720" y1="480" x2="780" y2="300" stroke="currentColor" stroke-width="80" stroke-linecap="square"/><polygon points="115,815 185,815 185,885 115,885" fill="currentColor"/></g>
</g>
<text x="800" y="340" font-size="15" font-weight="500" fill="#222">kallos</text>
<text x="800" y="365" font-size="12" fill="#666">donor tongue: <tspan fill="#444" font-weight="500">Greek</tspan></text>
<text x="800" y="385" font-size="12" fill="#666">semantic domain: <tspan fill="#d48ba4" font-weight="500">beauty</tspan></text>
<text x="800" y="405" font-size="12" fill="#666">morpheme class: <tspan fill="#444" font-weight="500">content</tspan></text>
<text x="800" y="435" font-size="10" fill="#999" font-style="italic">sigil: Greek | class-mark: content</text>
<line x1="60" y1="495" x2="1140" y2="495" stroke="#e6e3da" stroke-width="1"/>
<g transform="translate(180.0 510)" color="#4a7a4a">
<g transform="translate(0 140) scale(0.14 -0.14)"><line x1="500" y1="80" x2="500" y2="800" stroke="currentColor" stroke-width="60" stroke-linecap="square"/><line x1="200" y1="700" x2="800" y2="700" stroke="currentColor" stroke-width="60" stroke-linecap="square"/></g>
</g>
<g transform="translate(480.0 510)" color="#222">
<g transform="translate(0 140) scale(0.14 -0.14)"><line x1="500" y1="250" x2="500" y2="750" stroke="currentColor" stroke-width="80" stroke-linecap="square"/><line x1="280" y1="680" x2="720" y2="680" stroke="currentColor" stroke-width="80" stroke-linecap="square"/><line x1="250" y1="400" x2="750" y2="400" stroke="currentColor" stroke-width="80" stroke-linecap="square"/><polygon points="115,815 185,815 185,885 115,885" fill="currentColor"/></g>
</g>
<text x="800" y="540" font-size="15" font-weight="500" fill="#222">ortho</text>
<text x="800" y="565" font-size="12" fill="#666">donor tongue: <tspan fill="#444" font-weight="500">Greek</tspan></text>
<text x="800" y="585" font-size="12" fill="#666">semantic domain: <tspan fill="#86a385" font-weight="500">rightness</tspan></text>
<text x="800" y="605" font-size="12" fill="#666">morpheme class: <tspan fill="#444" font-weight="500">content</tspan></text>
<text x="800" y="635" font-size="10" fill="#999" font-style="italic">sigil: Greek | class-mark: content</text>
<line x1="60" y1="695" x2="1140" y2="695" stroke="#e6e3da" stroke-width="1"/>
<g transform="translate(180.0 710)" color="#4a7a4a">
<g transform="translate(0 140) scale(0.14 -0.14)"><line x1="500" y1="200" x2="200" y2="700" stroke="currentColor" stroke-width="60" stroke-linecap="square"/><line x1="500" y1="200" x2="500" y2="800" stroke="currentColor" stroke-width="60" stroke-linecap="square"/><line x1="500" y1="200" x2="800" y2="700" stroke="currentColor" stroke-width="60" stroke-linecap="square"/><line x1="500" y1="200" x2="150" y2="400" stroke="currentColor" stroke-width="60" stroke-linecap="square"/><line x1="500" y1="200" x2="850" y2="400" stroke="currentColor" stroke-width="60" stroke-linecap="square"/></g>
</g>
<g transform="translate(480.0 710)" color="#222">
<g transform="translate(0 140) scale(0.14 -0.14)"><line x1="500" y1="280" x2="220" y2="680" stroke="currentColor" stroke-width="80" stroke-linecap="square"/><line x1="500" y1="280" x2="360" y2="710" stroke="currentColor" stroke-width="80" stroke-linecap="square"/><line x1="500" y1="280" x2="500" y2="740" stroke="currentColor" stroke-width="80" stroke-linecap="square"/><line x1="500" y1="280" x2="640" y2="710" stroke="currentColor" stroke-width="80" stroke-linecap="square"/><line x1="500" y1="280" x2="780" y2="680" stroke="currentColor" stroke-width="80" stroke-linecap="square"/><line x1="500" y1="280" x2="200" y2="440" stroke="currentColor" stroke-width="80" stroke-linecap="square"/><line x1="500" y1="280" x2="800" y2="440" stroke="currentColor" stroke-width="80" stroke-linecap="square"/><polygon points="115,815 185,815 185,885 115,885" fill="currentColor"/></g>
</g>
<text x="800" y="740" font-size="15" font-weight="500" fill="#222">phanes</text>
<text x="800" y="765" font-size="12" fill="#666">donor tongue: <tspan fill="#444" font-weight="500">Greek</tspan></text>
<text x="800" y="785" font-size="12" fill="#666">semantic domain: <tspan fill="#d5a662" font-weight="500">appearing</tspan></text>
<text x="800" y="805" font-size="12" fill="#666">morpheme class: <tspan fill="#444" font-weight="500">content</tspan></text>
<text x="800" y="835" font-size="10" fill="#999" font-style="italic">sigil: Greek | class-mark: content</text>
<line x1="60" y1="895" x2="1140" y2="895" stroke="#e6e3da" stroke-width="1"/>
<g transform="translate(180.0 910)" color="#4a7a4a">
<g transform="translate(0 140) scale(0.14 -0.14)"><line x1="400" y1="750" x2="400" y2="450" stroke="currentColor" stroke-width="60" stroke-linecap="square"/><line x1="400" y1="450" x2="650" y2="200" stroke="currentColor" stroke-width="60" stroke-linecap="square"/><polygon points="340,390 460,390 460,510 340,510" fill="currentColor"/></g>
</g>
<g transform="translate(480.0 910)" color="#222">
<g transform="translate(0 140) scale(0.14 -0.14)"><line x1="400" y1="730" x2="400" y2="480" stroke="currentColor" stroke-width="80" stroke-linecap="square"/><line x1="400" y1="480" x2="680" y2="230" stroke="currentColor" stroke-width="80" stroke-linecap="square"/><polygon points="330,410 470,410 470,550 330,550" fill="currentColor"/><polygon points="115,815 185,815 185,885 115,885" fill="currentColor"/></g>
</g>
<text x="800" y="940" font-size="15" font-weight="500" fill="#222">algia</text>
<text x="800" y="965" font-size="12" fill="#666">donor tongue: <tspan fill="#444" font-weight="500">Greek</tspan></text>
<text x="800" y="985" font-size="12" fill="#666">semantic domain: <tspan fill="#a87b73" font-weight="500">ache</tspan></text>
<text x="800" y="1005" font-size="12" fill="#666">morpheme class: <tspan fill="#444" font-weight="500">content</tspan></text>
<text x="800" y="1035" font-size="10" fill="#999" font-style="italic">sigil: Greek | class-mark: content</text>
<line x1="60" y1="1095" x2="1140" y2="1095" stroke="#e6e3da" stroke-width="1"/>
<g transform="translate(180.0 1110)" color="#4a7a4a">
<g transform="translate(0 140) scale(0.14 -0.14)"><line x1="200" y1="700" x2="500" y2="200" stroke="currentColor" stroke-width="60" stroke-linecap="square"/><line x1="800" y1="700" x2="500" y2="200" stroke="currentColor" stroke-width="60" stroke-linecap="square"/></g>
</g>
<g transform="translate(480.0 1110)" color="#222">
<g transform="translate(0 140) scale(0.14 -0.14)"><line x1="220" y1="720" x2="500" y2="220" stroke="currentColor" stroke-width="80" stroke-linecap="square"/><line x1="780" y1="720" x2="500" y2="220" stroke="currentColor" stroke-width="80" stroke-linecap="square"/><line x1="380" y1="470" x2="620" y2="470" stroke="currentColor" stroke-width="80" stroke-linecap="square"/><polygon points="115,815 185,815 185,885 115,885" fill="currentColor"/></g>
</g>
<text x="800" y="1140" font-size="15" font-weight="500" fill="#222">syn</text>
<text x="800" y="1165" font-size="12" fill="#666">donor tongue: <tspan fill="#444" font-weight="500">Greek</tspan></text>
<text x="800" y="1185" font-size="12" fill="#666">semantic domain: <tspan fill="#a585b2" font-weight="500">relation+between</tspan></text>
<text x="800" y="1205" font-size="12" fill="#666">morpheme class: <tspan fill="#444" font-weight="500">content</tspan></text>
<text x="800" y="1235" font-size="10" fill="#999" font-style="italic">sigil: Greek | class-mark: content</text>
<line x1="60" y1="1295" x2="1140" y2="1295" stroke="#e6e3da" stroke-width="1"/>
<g transform="translate(180.0 1310)" color="#4a7a4a">
<g transform="translate(0 140) scale(0.14 -0.14)"><line x1="250" y1="500" x2="300" y2="250" stroke="currentColor" stroke-width="60" stroke-linecap="square"/><line x1="300" y1="250" x2="700" y2="250" stroke="currentColor" stroke-width="60" stroke-linecap="square"/><line x1="700" y1="250" x2="750" y2="500" stroke="currentColor" stroke-width="60" stroke-linecap="square"/><line x1="500" y1="550" x2="500" y2="750" stroke="currentColor" stroke-width="60" stroke-linecap="square"/></g>
</g>
<g transform="translate(480.0 1310)" color="#222">
<g transform="translate(0 140) scale(0.14 -0.14)"><line x1="270" y1="500" x2="320" y2="250" stroke="currentColor" stroke-width="80" stroke-linecap="square"/><line x1="320" y1="250" x2="680" y2="250" stroke="currentColor" stroke-width="80" stroke-linecap="square"/><line x1="680" y1="250" x2="730" y2="500" stroke="currentColor" stroke-width="80" stroke-linecap="square"/><line x1="500" y1="540" x2="500" y2="760" stroke="currentColor" stroke-width="80" stroke-linecap="square"/><line x1="470" y1="700" x2="500" y2="760" stroke="currentColor" stroke-width="80" stroke-linecap="square"/><line x1="530" y1="700" x2="500" y2="760" stroke="currentColor" stroke-width="80" stroke-linecap="square"/><polygon points="115,815 185,815 185,885 115,885" fill="currentColor"/></g>
</g>
<text x="800" y="1340" font-size="15" font-weight="500" fill="#222">dokim</text>
<text x="800" y="1365" font-size="12" fill="#666">donor tongue: <tspan fill="#444" font-weight="500">Greek</tspan></text>
<text x="800" y="1385" font-size="12" fill="#666">semantic domain: <tspan fill="#b38a5f" font-weight="500">testing+forging</tspan></text>
<text x="800" y="1405" font-size="12" fill="#666">morpheme class: <tspan fill="#444" font-weight="500">content</tspan></text>
<text x="800" y="1435" font-size="10" fill="#999" font-style="italic">sigil: Greek | class-mark: content</text>
<line x1="60" y1="1495" x2="1140" y2="1495" stroke="#e6e3da" stroke-width="1"/>
<g transform="translate(180.0 1510)" color="#4a7a4a">
<g transform="translate(0 140) scale(0.14 -0.14)"><line x1="500" y1="100" x2="500" y2="700" stroke="currentColor" stroke-width="60" stroke-linecap="square"/><line x1="200" y1="400" x2="800" y2="400" stroke="currentColor" stroke-width="60" stroke-linecap="square"/></g>
</g>
<g transform="translate(480.0 1510)" color="#222">
<g transform="translate(0 140) scale(0.14 -0.14)"><line x1="500" y1="220" x2="500" y2="780" stroke="currentColor" stroke-width="80" stroke-linecap="square"/><line x1="220" y1="500" x2="780" y2="500" stroke="currentColor" stroke-width="80" stroke-linecap="square"/><polygon points="115,815 185,815 185,885 115,885" fill="currentColor"/></g>
</g>
<text x="800" y="1540" font-size="15" font-weight="500" fill="#222">veri</text>
<text x="800" y="1565" font-size="12" fill="#666">donor tongue: <tspan fill="#444" font-weight="500">Latin</tspan></text>
<text x="800" y="1585" font-size="12" fill="#666">semantic domain: <tspan fill="#86a385" font-weight="500">rightness</tspan></text>
<text x="800" y="1605" font-size="12" fill="#666">morpheme class: <tspan fill="#444" font-weight="500">content</tspan></text>
<text x="800" y="1635" font-size="10" fill="#999" font-style="italic">sigil: Latin | class-mark: content</text>
<line x1="60" y1="1695" x2="1140" y2="1695" stroke="#e6e3da" stroke-width="1"/>
<g transform="translate(180.0 1710)" color="#4a7a4a">
<g transform="translate(0 140) scale(0.14 -0.14)"><line x1="400" y1="700" x2="350" y2="800" stroke="currentColor" stroke-width="60" stroke-linecap="square"/><line x1="500" y1="730" x2="500" y2="830" stroke="currentColor" stroke-width="60" stroke-linecap="square"/><line x1="600" y1="700" x2="650" y2="800" stroke="currentColor" stroke-width="60" stroke-linecap="square"/><line x1="350" y1="450" x2="450" y2="600" stroke="currentColor" stroke-width="60" stroke-linecap="square"/><line x1="450" y1="600" x2="550" y2="600" stroke="currentColor" stroke-width="60" stroke-linecap="square"/><line x1="550" y1="600" x2="650" y2="450" stroke="currentColor" stroke-width="60" stroke-linecap="square"/><line x1="650" y1="450" x2="550" y2="300" stroke="currentColor" stroke-width="60" stroke-linecap="square"/><line x1="550" y1="300" x2="450" y2="300" stroke="currentColor" stroke-width="60" stroke-linecap="square"/><line x1="450" y1="300" x2="350" y2="450" stroke="currentColor" stroke-width="60" stroke-linecap="square"/></g>
</g>
<g transform="translate(480.0 1710)" color="#222">
<g transform="translate(0 140) scale(0.14 -0.14)"><line x1="400" y1="700" x2="350" y2="800" stroke="currentColor" stroke-width="80" stroke-linecap="square"/><line x1="500" y1="730" x2="500" y2="830" stroke="currentColor" stroke-width="80" stroke-linecap="square"/><line x1="600" y1="700" x2="650" y2="800" stroke="currentColor" stroke-width="80" stroke-linecap="square"/><line x1="350" y1="450" x2="430" y2="600" stroke="currentColor" stroke-width="80" stroke-linecap="square"/><line x1="430" y1="600" x2="570" y2="600" stroke="currentColor" stroke-width="80" stroke-linecap="square"/><line x1="570" y1="600" x2="650" y2="450" stroke="currentColor" stroke-width="80" stroke-linecap="square"/><line x1="650" y1="450" x2="570" y2="300" stroke="currentColor" stroke-width="80" stroke-linecap="square"/><line x1="570" y1="300" x2="430" y2="300" stroke="currentColor" stroke-width="80" stroke-linecap="square"/><line x1="430" y1="300" x2="350" y2="450" stroke="currentColor" stroke-width="80" stroke-linecap="square"/><polygon points="320,770 380,770 380,830 320,830" fill="currentColor"/><polygon points="470,800 530,800 530,860 470,860" fill="currentColor"/><polygon points="620,770 680,770 680,830 620,830" fill="currentColor"/><polygon points="115,815 185,815 185,885 115,885" fill="currentColor"/></g>
</g>
<text x="800" y="1740" font-size="15" font-weight="500" fill="#222">cand</text>
<text x="800" y="1765" font-size="12" fill="#666">donor tongue: <tspan fill="#444" font-weight="500">Latin</tspan></text>
<text x="800" y="1785" font-size="12" fill="#666">semantic domain: <tspan fill="#e0a66f" font-weight="500">appearing+warm</tspan></text>
<text x="800" y="1805" font-size="12" fill="#666">morpheme class: <tspan fill="#444" font-weight="500">content</tspan></text>
<text x="800" y="1835" font-size="10" fill="#999" font-style="italic">sigil: Latin | class-mark: content</text>
<line x1="60" y1="1895" x2="1140" y2="1895" stroke="#e6e3da" stroke-width="1"/>
<g transform="translate(180.0 1910)" color="#4a7a4a">
<g transform="translate(0 140) scale(0.14 -0.14)"><line x1="350" y1="100" x2="350" y2="750" stroke="currentColor" stroke-width="60" stroke-linecap="square"/><line x1="650" y1="100" x2="650" y2="750" stroke="currentColor" stroke-width="60" stroke-linecap="square"/></g>
</g>
<g transform="translate(480.0 1910)" color="#222">
<g transform="translate(0 140) scale(0.14 -0.14)"><line x1="350" y1="220" x2="350" y2="780" stroke="currentColor" stroke-width="80" stroke-linecap="square"/><line x1="650" y1="220" x2="650" y2="780" stroke="currentColor" stroke-width="80" stroke-linecap="square"/><polygon points="115,815 185,815 185,885 115,885" fill="currentColor"/></g>
</g>
<text x="800" y="1940" font-size="15" font-weight="500" fill="#222">diplos</text>
<text x="800" y="1965" font-size="12" fill="#666">donor tongue: <tspan fill="#444" font-weight="500">Greek</tspan></text>
<text x="800" y="1985" font-size="12" fill="#666">semantic domain: <tspan fill="#8a8a8a" font-weight="500">structure+multiplicity</tspan></text>
<text x="800" y="2005" font-size="12" fill="#666">morpheme class: <tspan fill="#444" font-weight="500">content</tspan></text>
<text x="800" y="2035" font-size="10" fill="#999" font-style="italic">sigil: Greek | class-mark: content</text>
<line x1="60" y1="2095" x2="1140" y2="2095" stroke="#e6e3da" stroke-width="1"/>
</svg>