<svg xmlns="http://www.w3.org/2000/svg" viewBox="0 0 1400 2220" width="1400" height="2220" style="font-family: -apple-system, sans-serif;">
<rect width="1400" height="2220" fill="#fafaf7"/>
<text x="700.0" y="40" text-anchor="middle" font-size="24" font-weight="bold">YOUSPEAK Canon — v1 rendering</text>
<text x="700.0" y="65" text-anchor="middle" font-size="12" fill="#666">16 canonical words · each composed of morpheme-glyphs · v1 feature-encoded</text>
<g color="#222">
<g transform="translate(100 100)">
<g transform="translate(0 90) scale(0.09 -0.09)"><line x1="200" y1="680" x2="800" y2="680" stroke="currentColor" stroke-width="80" stroke-linecap="square"/><line x1="800" y1="680" x2="500" y2="230" stroke="currentColor" stroke-width="80" stroke-linecap="square"/><line x1="500" y1="230" x2="200" y2="680" stroke="currentColor" stroke-width="80" stroke-linecap="square"/><line x1="500" y1="600" x2="500" y2="300" stroke="currentColor" stroke-width="80" stroke-linecap="square"/><line x1="350" y1="590" x2="500" y2="350" stroke="currentColor" stroke-width="80" stroke-linecap="square"/><line x1="650" y1="590" x2="500" y2="350" stroke="currentColor" stroke-width="80" stroke-linecap="square"/><polygon points="115,815 185,815 185,885 115,885" fill="currentColor"/></g>
</g>
<g transform="translate(200 100)">
<g transform="translate(0 90) scale(0.09 -0.09)"><line x1="500" y1="200" x2="500" y2="680" stroke="currentColor" stroke-width="80" stroke-linecap="square"/><line x1="500" y1="680" x2="280" y2="480" stroke="currentColor" stroke-width="80" stroke-linecap="square"/><line x1="500" y1="680" x2="720" y2="480" stroke="currentColor" stroke-width="80" stroke-linecap="square"/><line x1="280" y1="480" x2="220" y2="300" stroke="currentColor" stroke-width="80" stroke-linecap="square"/><line x1="720" y1="480" x2="780" y2="300" stroke="currentColor" stroke-width="80" stroke-linecap="square"/><polygon points="115,815 185,815 185,885 115,885" fill="currentColor"/></g>
</g>
</g>
<text x="750" y="140" font-size="20" font-weight="500" fill="#222">doxakallos</text>
<text x="750" y="165" font-size="13" fill="#666" font-style="italic">the uncreated beauty-quality of GoD</text>
<text x="750" y="188" font-size="10" fill="#999">doxa[Gre] · kallos[Gre]</text>
<line x1="80" y1="215" x2="1320" y2="215" stroke="#e6e3da" stroke-width="1"/>
<g color="#222">
<g transform="translate(100 230)">
<g transform="translate(0 90) scale(0.09 -0.09)"><line x1="500" y1="200" x2="500" y2="680" stroke="currentColor" stroke-width="80" stroke-linecap="square"/><line x1="500" y1="680" x2="280" y2="480" stroke="currentColor" stroke-width="80" stroke-linecap="square"/><line x1="500" y1="680" x2="720" y2="480" stroke="currentColor" stroke-width="80" stroke-linecap="square"/><line x1="280" y1="480" x2="220" y2="300" stroke="currentColor" stroke-width="80" stroke-linecap="square"/><line x1="720" y1="480" x2="780" y2="300" stroke="currentColor" stroke-width="80" stroke-linecap="square"/><polygon points="115,815 185,815 185,885 115,885" fill="currentColor"/></g>
</g>
<g transform="translate(200 230)">
<g transform="translate(0 90) scale(0.09 -0.09)"><line x1="200" y1="680" x2="800" y2="680" stroke="currentColor" stroke-width="80" stroke-linecap="square"/><line x1="800" y1="680" x2="500" y2="230" stroke="currentColor" stroke-width="80" stroke-linecap="square"/><line x1="500" y1="230" x2="200" y2="680" stroke="currentColor" stroke-width="80" stroke-linecap="square"/><line x1="500" y1="600" x2="500" y2="300" stroke="currentColor" stroke-width="80" stroke-linecap="square"/><line x1="350" y1="590" x2="500" y2="350" stroke="currentColor" stroke-width="80" stroke-linecap="square"/><line x1="650" y1="590" x2="500" y2="350" stroke="currentColor" stroke-width="80" stroke-linecap="square"/><polygon points="115,815 185,815 185,885 115,885" fill="currentColor"/></g>
</g>
</g>
<text x="750" y="270" font-size="20" font-weight="500" fill="#222">kallodoxa</text>
<text x="750" y="295" font-size="13" fill="#666" font-style="italic">the glory-quality of divine beauty</text>
<text x="750" y="318" font-size="10" fill="#999">kallos[Gre] · doxa[Gre]</text>
<line x1="80" y1="345" x2="1320" y2="345" stroke="#e6e3da" stroke-width="1"/>
<g color="#222">
<g transform="translate(100 360)">
<g transform="translate(0 90) scale(0.09 -0.09)"><line x1="500" y1="250" x2="500" y2="750" stroke="currentColor" stroke-width="80" stroke-linecap="square"/><line x1="280" y1="680" x2="720" y2="680" stroke="currentColor" stroke-width="80" stroke-linecap="square"/><line x1="250" y1="400" x2="750" y2="400" stroke="currentColor" stroke-width="80" stroke-linecap="square"/><polygon points="115,815 185,815 185,885 115,885" fill="currentColor"/></g>
</g>
<g transform="translate(200 360)">
<g transform="translate(0 90) scale(0.09 -0.09)"><line x1="500" y1="280" x2="220" y2="680" stroke="currentColor" stroke-width="80" stroke-linecap="square"/><line x1="500" y1="280" x2="360" y2="710" stroke="currentColor" stroke-width="80" stroke-linecap="square"/><line x1="500" y1="280" x2="500" y2="740" stroke="currentColor" stroke-width="80" stroke-linecap="square"/><line x1="500" y1="280" x2="640" y2="710" stroke="currentColor" stroke-width="80" stroke-linecap="square"/><line x1="500" y1="280" x2="780" y2="680" stroke="currentColor" stroke-width="80" stroke-linecap="square"/><line x1="500" y1="280" x2="200" y2="440" stroke="currentColor" stroke-width="80" stroke-linecap="square"/><line x1="500" y1="280" x2="800" y2="440" stroke="currentColor" stroke-width="80" stroke-linecap="square"/><polygon points="115,815 185,815 185,885 115,885" fill="currentColor"/></g>
</g>
</g>
<text x="750" y="400" font-size="20" font-weight="500" fill="#222">orthophanes</text>
<text x="750" y="425" font-size="13" fill="#666" font-style="italic">the rightness-made-visible</text>
<text x="750" y="448" font-size="10" fill="#999">ortho[Gre] · phanes[Gre]</text>
<line x1="80" y1="475" x2="1320" y2="475" stroke="#e6e3da" stroke-width="1"/>
<g color="#222">
<g transform="translate(100 490)">
<g transform="translate(0 90) scale(0.09 -0.09)"><line x1="200" y1="680" x2="800" y2="680" stroke="currentColor" stroke-width="80" stroke-linecap="square"/><line x1="800" y1="680" x2="500" y2="230" stroke="currentColor" stroke-width="80" stroke-linecap="square"/><line x1="500" y1="230" x2="200" y2="680" stroke="currentColor" stroke-width="80" stroke-linecap="square"/><line x1="500" y1="600" x2="500" y2="300" stroke="currentColor" stroke-width="80" stroke-linecap="square"/><line x1="350" y1="590" x2="500" y2="350" stroke="currentColor" stroke-width="80" stroke-linecap="square"/><line x1="650" y1="590" x2="500" y2="350" stroke="currentColor" stroke-width="80" stroke-linecap="square"/><polygon points="115,815 185,815 185,885 115,885" fill="currentColor"/></g>
</g>
<g transform="translate(200 490)">
<g transform="translate(0 90) scale(0.09 -0.09)"><line x1="400" y1="730" x2="400" y2="480" stroke="currentColor" stroke-width="80" stroke-linecap="square"/><line x1="400" y1="480" x2="680" y2="230" stroke="currentColor" stroke-width="80" stroke-linecap="square"/><polygon points="330,410 470,410 470,550 330,550" fill="currentColor"/><polygon points="115,815 185,815 185,885 115,885" fill="currentColor"/></g>
</g>
</g>
<text x="750" y="530" font-size="20" font-weight="500" fill="#222">doxalgia</text>
<text x="750" y="555" font-size="13" fill="#666" font-style="italic">the ache at beholding</text>
<text x="750" y="578" font-size="10" fill="#999">doxa[Gre] · algia[Gre]</text>
<line x1="80" y1="605" x2="1320" y2="605" stroke="#e6e3da" stroke-width="1"/>
<g color="#222">
<g transform="translate(100 620)">
<g transform="translate(0 90) scale(0.09 -0.09)"><line x1="500" y1="270" x2="500" y2="670" stroke="currentColor" stroke-width="80" stroke-linecap="square"/><line x1="500" y1="670" x2="390" y2="570" stroke="currentColor" stroke-width="80" stroke-linecap="square"/><line x1="500" y1="670" x2="610" y2="570" stroke="currentColor" stroke-width="80" stroke-linecap="square"/><polygon points="115,815 185,815 185,885 115,885" fill="currentColor"/><polygon points="880,170 880,110 815,140" fill="currentColor"/></g>
</g>
<g transform="translate(200 620)">
<g transform="translate(0 90) scale(0.09 -0.09)"><line x1="230" y1="720" x2="770" y2="720" stroke="currentColor" stroke-width="80" stroke-linecap="square"/><line x1="230" y1="280" x2="770" y2="280" stroke="currentColor" stroke-width="80" stroke-linecap="square"/><line x1="500" y1="720" x2="500" y2="280" stroke="currentColor" stroke-width="80" stroke-linecap="square"/><line x1="370" y1="500" x2="630" y2="500" stroke="currentColor" stroke-width="80" stroke-linecap="square"/><polygon points="115,815 185,815 185,885 115,885" fill="currentColor"/></g>
</g>
<g transform="translate(300 620)">
<g transform="translate(0 90) scale(0.09 -0.09)"><line x1="350" y1="220" x2="350" y2="720" stroke="currentColor" stroke-width="80" stroke-linecap="square"/><line x1="650" y1="220" x2="650" y2="720" stroke="currentColor" stroke-width="80" stroke-linecap="square"/><line x1="220" y1="220" x2="780" y2="220" stroke="currentColor" stroke-width="80" stroke-linecap="square"/><polygon points="115,815 185,815 185,885 115,885" fill="currentColor"/></g>
</g>
</g>
<text x="750" y="660" font-size="20" font-weight="500" fill="#222">anagnoristasis</text>
<text x="750" y="685" font-size="13" fill="#666" font-style="italic">recognition standing still</text>
<text x="750" y="708" font-size="10" fill="#999">ana[Gre] · anagno[Gre] · stasis[Gre]</text>
<line x1="80" y1="735" x2="1320" y2="735" stroke="#e6e3da" stroke-width="1"/>
<g color="#222">
<g transform="translate(100 750)">
<g transform="translate(0 90) scale(0.09 -0.09)"><line x1="250" y1="480" x2="800" y2="480" stroke="currentColor" stroke-width="80" stroke-linecap="square"/><line x1="250" y1="480" x2="470" y2="680" stroke="currentColor" stroke-width="80" stroke-linecap="square"/><line x1="250" y1="480" x2="470" y2="280" stroke="currentColor" stroke-width="80" stroke-linecap="square"/><polygon points="115,815 185,815 185,885 115,885" fill="currentColor"/></g>
</g>
<g transform="translate(200 750)">
<g transform="translate(0 90) scale(0.09 -0.09)"><line x1="800" y1="480" x2="750" y2="720" stroke="currentColor" stroke-width="80" stroke-linecap="square"/><line x1="750" y1="720" x2="500" y2="780" stroke="currentColor" stroke-width="80" stroke-linecap="square"/><line x1="500" y1="780" x2="250" y2="720" stroke="currentColor" stroke-width="80" stroke-linecap="square"/><line x1="250" y1="720" x2="200" y2="480" stroke="currentColor" stroke-width="80" stroke-linecap="square"/><line x1="200" y1="480" x2="250" y2="280" stroke="currentColor" stroke-width="80" stroke-linecap="square"/><line x1="250" y1="280" x2="500" y2="220" stroke="currentColor" stroke-width="80" stroke-linecap="square"/><line x1="500" y1="220" x2="700" y2="280" stroke="currentColor" stroke-width="80" stroke-linecap="square"/><line x1="700" y1="280" x2="700" y2="440" stroke="currentColor" stroke-width="80" stroke-linecap="square"/><polygon points="115,815 185,815 185,885 115,885" fill="currentColor"/></g>
</g>
<g transform="translate(300 750)">
<g transform="translate(0 90) scale(0.09 -0.09)"><line x1="500" y1="320" x2="500" y2="680" stroke="currentColor" stroke-width="80" stroke-linecap="square"/><line x1="400" y1="320" x2="600" y2="320" stroke="currentColor" stroke-width="80" stroke-linecap="square"/><polygon points="115,815 185,815 185,885 115,885" fill="currentColor"/><polygon points="815,170 815,110 880,140" fill="currentColor"/></g>
</g>
</g>
<text x="750" y="790" font-size="20" font-weight="500" fill="#222">metastrophesis</text>
<text x="750" y="815" font-size="13" fill="#666" font-style="italic">the turning-kept</text>
<text x="750" y="838" font-size="10" fill="#999">meta[Gre] · strophe[Gre] · sis[Gre]</text>
<line x1="80" y1="865" x2="1320" y2="865" stroke="#e6e3da" stroke-width="1"/>
<g color="#222">
<g transform="translate(100 880)">
<g transform="translate(0 90) scale(0.09 -0.09)"><line x1="350" y1="500" x2="450" y2="620" stroke="currentColor" stroke-width="80" stroke-linecap="square"/><line x1="450" y1="620" x2="550" y2="620" stroke="currentColor" stroke-width="80" stroke-linecap="square"/><line x1="550" y1="620" x2="650" y2="500" stroke="currentColor" stroke-width="80" stroke-linecap="square"/><line x1="650" y1="500" x2="550" y2="380" stroke="currentColor" stroke-width="80" stroke-linecap="square"/><line x1="550" y1="380" x2="450" y2="380" stroke="currentColor" stroke-width="80" stroke-linecap="square"/><line x1="450" y1="380" x2="350" y2="500" stroke="currentColor" stroke-width="80" stroke-linecap="square"/><line x1="260" y1="280" x2="740" y2="680" stroke="currentColor" stroke-width="80" stroke-linecap="square"/><polygon points="115,815 185,815 185,885 115,885" fill="currentColor"/><polygon points="880,170 880,110 815,140" fill="currentColor"/></g>
</g>
<g transform="translate(200 880)">
<g transform="translate(0 90) scale(0.09 -0.09)"><line x1="200" y1="480" x2="400" y2="620" stroke="currentColor" stroke-width="80" stroke-linecap="square"/><line x1="400" y1="620" x2="600" y2="620" stroke="currentColor" stroke-width="80" stroke-linecap="square"/><line x1="600" y1="620" x2="800" y2="480" stroke="currentColor" stroke-width="80" stroke-linecap="square"/><line x1="800" y1="480" x2="600" y2="340" stroke="currentColor" stroke-width="80" stroke-linecap="square"/><line x1="600" y1="340" x2="400" y2="340" stroke="currentColor" stroke-width="80" stroke-linecap="square"/><line x1="400" y1="340" x2="200" y2="480" stroke="currentColor" stroke-width="80" stroke-linecap="square"/><polygon points="410,390 590,390 590,570 410,570" fill="currentColor"/><polygon points="115,815 185,815 185,885 115,885" fill="currentColor"/></g>
</g>
<g transform="translate(300 880)">
<g transform="translate(0 90) scale(0.09 -0.09)"><line x1="400" y1="480" x2="450" y2="570" stroke="currentColor" stroke-width="80" stroke-linecap="square"/><line x1="450" y1="570" x2="550" y2="570" stroke="currentColor" stroke-width="80" stroke-linecap="square"/><line x1="550" y1="570" x2="600" y2="480" stroke="currentColor" stroke-width="80" stroke-linecap="square"/><line x1="600" y1="480" x2="550" y2="390" stroke="currentColor" stroke-width="80" stroke-linecap="square"/><line x1="550" y1="390" x2="450" y2="390" stroke="currentColor" stroke-width="80" stroke-linecap="square"/><line x1="450" y1="390" x2="400" y2="480" stroke="currentColor" stroke-width="80" stroke-linecap="square"/><polygon points="115,815 185,815 185,885 115,885" fill="currentColor"/><polygon points="815,170 815,110 880,140" fill="currentColor"/></g>
</g>
</g>
<text x="750" y="920" font-size="20" font-weight="500" fill="#222">athaumasma</text>
<text x="750" y="945" font-size="13" fill="#666" font-style="italic">the no-longer-wondered trace</text>
<text x="750" y="968" font-size="10" fill="#999">a[Gre] · thauma[Gre] · ma[Gre]</text>
<line x1="80" y1="995" x2="1320" y2="995" stroke="#e6e3da" stroke-width="1"/>
<g color="#222">
<g transform="translate(100 1010)">
<g transform="translate(0 90) scale(0.09 -0.09)"><line x1="220" y1="720" x2="500" y2="220" stroke="currentColor" stroke-width="80" stroke-linecap="square"/><line x1="780" y1="720" x2="500" y2="220" stroke="currentColor" stroke-width="80" stroke-linecap="square"/><line x1="380" y1="470" x2="620" y2="470" stroke="currentColor" stroke-width="80" stroke-linecap="square"/><polygon points="115,815 185,815 185,885 115,885" fill="currentColor"/></g>
</g>
<g transform="translate(200 1010)">
<g transform="translate(0 90) scale(0.09 -0.09)"><line x1="220" y1="420" x2="720" y2="420" stroke="currentColor" stroke-width="80" stroke-linecap="square"/><line x1="720" y1="420" x2="720" y2="670" stroke="currentColor" stroke-width="80" stroke-linecap="square"/><polygon points="115,815 185,815 185,885 115,885" fill="currentColor"/></g>
</g>
</g>
<text x="750" y="1050" font-size="20" font-weight="500" fill="#222">synophora</text>
<text x="750" y="1075" font-size="13" fill="#666" font-style="italic">shared-witness</text>
<text x="750" y="1098" font-size="10" fill="#999">syn[Gre] · phora[Gre]</text>
<line x1="80" y1="1125" x2="1320" y2="1125" stroke="#e6e3da" stroke-width="1"/>
<g color="#222">
<g transform="translate(100 1140)">
<g transform="translate(0 90) scale(0.09 -0.09)"><line x1="500" y1="200" x2="500" y2="680" stroke="currentColor" stroke-width="80" stroke-linecap="square"/><line x1="500" y1="680" x2="280" y2="480" stroke="currentColor" stroke-width="80" stroke-linecap="square"/><line x1="500" y1="680" x2="720" y2="480" stroke="currentColor" stroke-width="80" stroke-linecap="square"/><line x1="280" y1="480" x2="220" y2="300" stroke="currentColor" stroke-width="80" stroke-linecap="square"/><line x1="720" y1="480" x2="780" y2="300" stroke="currentColor" stroke-width="80" stroke-linecap="square"/><polygon points="115,815 185,815 185,885 115,885" fill="currentColor"/></g>
</g>
<g transform="translate(200 1140)">
<g transform="translate(0 90) scale(0.09 -0.09)"><line x1="500" y1="280" x2="220" y2="680" stroke="currentColor" stroke-width="80" stroke-linecap="square"/><line x1="500" y1="280" x2="360" y2="710" stroke="currentColor" stroke-width="80" stroke-linecap="square"/><line x1="500" y1="280" x2="500" y2="740" stroke="currentColor" stroke-width="80" stroke-linecap="square"/><line x1="500" y1="280" x2="640" y2="710" stroke="currentColor" stroke-width="80" stroke-linecap="square"/><line x1="500" y1="280" x2="780" y2="680" stroke="currentColor" stroke-width="80" stroke-linecap="square"/><line x1="500" y1="280" x2="200" y2="440" stroke="currentColor" stroke-width="80" stroke-linecap="square"/><line x1="500" y1="280" x2="800" y2="440" stroke="currentColor" stroke-width="80" stroke-linecap="square"/><polygon points="115,815 185,815 185,885 115,885" fill="currentColor"/></g>
</g>
</g>
<text x="750" y="1180" font-size="20" font-weight="500" fill="#222">kallophanes</text>
<text x="750" y="1205" font-size="13" fill="#666" font-style="italic">beauty-specific appearing</text>
<text x="750" y="1228" font-size="10" fill="#999">kallos[Gre] · phanes[Gre]</text>
<line x1="80" y1="1255" x2="1320" y2="1255" stroke="#e6e3da" stroke-width="1"/>
<g color="#222">
<g transform="translate(100 1270)">
<g transform="translate(0 90) scale(0.09 -0.09)"><line x1="270" y1="500" x2="320" y2="250" stroke="currentColor" stroke-width="80" stroke-linecap="square"/><line x1="320" y1="250" x2="680" y2="250" stroke="currentColor" stroke-width="80" stroke-linecap="square"/><line x1="680" y1="250" x2="730" y2="500" stroke="currentColor" stroke-width="80" stroke-linecap="square"/><line x1="500" y1="540" x2="500" y2="760" stroke="currentColor" stroke-width="80" stroke-linecap="square"/><line x1="470" y1="700" x2="500" y2="760" stroke="currentColor" stroke-width="80" stroke-linecap="square"/><line x1="530" y1="700" x2="500" y2="760" stroke="currentColor" stroke-width="80" stroke-linecap="square"/><polygon points="115,815 185,815 185,885 115,885" fill="currentColor"/></g>
</g>
<g transform="translate(200 1270)">
<g transform="translate(0 90) scale(0.09 -0.09)"><line x1="400" y1="580" x2="400" y2="320" stroke="currentColor" stroke-width="80" stroke-linecap="square"/><line x1="400" y1="320" x2="600" y2="180" stroke="currentColor" stroke-width="80" stroke-linecap="square"/><polygon points="115,815 185,815 185,885 115,885" fill="currentColor"/><polygon points="815,170 815,110 880,140" fill="currentColor"/></g>
</g>
</g>
<text x="750" y="1310" font-size="20" font-weight="500" fill="#222">dokimance</text>
<text x="750" y="1335" font-size="13" fill="#666" font-style="italic">testing-that-makes-real</text>
<text x="750" y="1358" font-size="10" fill="#999">dokim[Gre] · ance[Lat]</text>
<line x1="80" y1="1385" x2="1320" y2="1385" stroke="#e6e3da" stroke-width="1"/>
<g color="#222">
<g transform="translate(100 1400)">
<g transform="translate(0 90) scale(0.09 -0.09)"><line x1="500" y1="770" x2="800" y2="570" stroke="currentColor" stroke-width="80" stroke-linecap="square"/><line x1="800" y1="570" x2="680" y2="240" stroke="currentColor" stroke-width="80" stroke-linecap="square"/><line x1="680" y1="240" x2="320" y2="240" stroke="currentColor" stroke-width="80" stroke-linecap="square"/><line x1="320" y1="240" x2="200" y2="570" stroke="currentColor" stroke-width="80" stroke-linecap="square"/><line x1="200" y1="570" x2="500" y2="770" stroke="currentColor" stroke-width="80" stroke-linecap="square"/><line x1="115" y1="885" x2="185" y2="885" stroke="currentColor" stroke-width="80" stroke-linecap="square"/><line x1="115" y1="850" x2="185" y2="850" stroke="currentColor" stroke-width="80" stroke-linecap="square"/><line x1="115" y1="815" x2="185" y2="815" stroke="currentColor" stroke-width="80" stroke-linecap="square"/></g>
</g>
<g transform="translate(200 1400)">
<g transform="translate(0 90) scale(0.09 -0.09)"><line x1="400" y1="520" x2="400" y2="320" stroke="currentColor" stroke-width="80" stroke-linecap="square"/><line x1="400" y1="320" x2="600" y2="180" stroke="currentColor" stroke-width="80" stroke-linecap="square"/><line x1="500" y1="580" x2="500" y2="800" stroke="currentColor" stroke-width="80" stroke-linecap="square"/><polygon points="115,815 185,815 185,885 115,885" fill="currentColor"/><polygon points="815,170 815,110 880,140" fill="currentColor"/></g>
</g>
</g>
<text x="750" y="1440" font-size="20" font-weight="500" fill="#222">artiance</text>
<text x="750" y="1465" font-size="13" fill="#666" font-style="italic">pre-domain luminous-rightness</text>
<text x="750" y="1488" font-size="10" fill="#999">arti[PIE] · iance[Lat]</text>
<line x1="80" y1="1515" x2="1320" y2="1515" stroke="#e6e3da" stroke-width="1"/>
<g color="#222">
<g transform="translate(100 1530)">
<g transform="translate(0 90) scale(0.09 -0.09)"><line x1="500" y1="220" x2="500" y2="780" stroke="currentColor" stroke-width="80" stroke-linecap="square"/><line x1="220" y1="500" x2="780" y2="500" stroke="currentColor" stroke-width="80" stroke-linecap="square"/><polygon points="115,815 185,815 185,885 115,885" fill="currentColor"/></g>
</g>
<g transform="translate(200 1530)">
<g transform="translate(0 90) scale(0.09 -0.09)"><line x1="260" y1="260" x2="740" y2="720" stroke="currentColor" stroke-width="80" stroke-linecap="square"/><line x1="740" y1="260" x2="260" y2="720" stroke="currentColor" stroke-width="80" stroke-linecap="square"/></g>
</g>
</g>
<text x="750" y="1570" font-size="20" font-weight="500" fill="#222">verisleight</text>
<text x="750" y="1595" font-size="13" fill="#666" font-style="italic">truth that produces false conclusions</text>
<text x="750" y="1618" font-size="10" fill="#999">veri[Lat] · sleight[Eng]</text>
<line x1="80" y1="1645" x2="1320" y2="1645" stroke="#e6e3da" stroke-width="1"/>
<g color="#222">
<g transform="translate(100 1660)">
<g transform="translate(0 90) scale(0.09 -0.09)"><line x1="400" y1="700" x2="350" y2="800" stroke="currentColor" stroke-width="80" stroke-linecap="square"/><line x1="500" y1="730" x2="500" y2="830" stroke="currentColor" stroke-width="80" stroke-linecap="square"/><line x1="600" y1="700" x2="650" y2="800" stroke="currentColor" stroke-width="80" stroke-linecap="square"/><line x1="350" y1="450" x2="430" y2="600" stroke="currentColor" stroke-width="80" stroke-linecap="square"/><line x1="430" y1="600" x2="570" y2="600" stroke="currentColor" stroke-width="80" stroke-linecap="square"/><line x1="570" y1="600" x2="650" y2="450" stroke="currentColor" stroke-width="80" stroke-linecap="square"/><line x1="650" y1="450" x2="570" y2="300" stroke="currentColor" stroke-width="80" stroke-linecap="square"/><line x1="570" y1="300" x2="430" y2="300" stroke="currentColor" stroke-width="80" stroke-linecap="square"/><line x1="430" y1="300" x2="350" y2="450" stroke="currentColor" stroke-width="80" stroke-linecap="square"/><polygon points="320,770 380,770 380,830 320,830" fill="currentColor"/><polygon points="470,800 530,800 530,860 470,860" fill="currentColor"/><polygon points="620,770 680,770 680,830 620,830" fill="currentColor"/><polygon points="115,815 185,815 185,885 115,885" fill="currentColor"/></g>
</g>
<g transform="translate(200 1660)">
<g transform="translate(0 90) scale(0.09 -0.09)"><line x1="400" y1="520" x2="400" y2="320" stroke="currentColor" stroke-width="80" stroke-linecap="square"/><line x1="400" y1="320" x2="570" y2="220" stroke="currentColor" stroke-width="80" stroke-linecap="square"/><polygon points="115,815 185,815 185,885 115,885" fill="currentColor"/><polygon points="815,170 815,110 880,140" fill="currentColor"/></g>
</g>
</g>
<text x="750" y="1700" font-size="20" font-weight="500" fill="#222">candence</text>
<text x="750" y="1725" font-size="13" fill="#666" font-style="italic">warm clarity</text>
<text x="750" y="1748" font-size="10" fill="#999">cand[Lat] · ence[Lat]</text>
<line x1="80" y1="1775" x2="1320" y2="1775" stroke="#e6e3da" stroke-width="1"/>
<g color="#222">
<g transform="translate(100 1790)">
<g transform="translate(0 90) scale(0.09 -0.09)"><line x1="260" y1="270" x2="420" y2="470" stroke="currentColor" stroke-width="80" stroke-linecap="square"/><line x1="420" y1="470" x2="260" y2="670" stroke="currentColor" stroke-width="80" stroke-linecap="square"/><line x1="740" y1="270" x2="580" y2="470" stroke="currentColor" stroke-width="80" stroke-linecap="square"/><line x1="580" y1="470" x2="740" y2="670" stroke="currentColor" stroke-width="80" stroke-linecap="square"/><polygon points="115,815 185,815 185,885 115,885" fill="currentColor"/><polygon points="880,170 880,110 815,140" fill="currentColor"/></g>
</g>
<g transform="translate(200 1790)">
<g transform="translate(0 90) scale(0.09 -0.09)"><line x1="270" y1="670" x2="470" y2="670" stroke="currentColor" stroke-width="80" stroke-linecap="square"/><line x1="470" y1="670" x2="470" y2="330" stroke="currentColor" stroke-width="80" stroke-linecap="square"/><line x1="470" y1="330" x2="270" y2="330" stroke="currentColor" stroke-width="80" stroke-linecap="square"/><line x1="730" y1="670" x2="530" y2="670" stroke="currentColor" stroke-width="80" stroke-linecap="square"/><line x1="530" y1="670" x2="530" y2="330" stroke="currentColor" stroke-width="80" stroke-linecap="square"/><line x1="530" y1="330" x2="730" y2="330" stroke="currentColor" stroke-width="80" stroke-linecap="square"/><polygon points="115,815 185,815 185,885 115,885" fill="currentColor"/></g>
</g>
<g transform="translate(300 1790)">
<g transform="translate(0 90) scale(0.09 -0.09)"><line x1="400" y1="520" x2="400" y2="320" stroke="currentColor" stroke-width="80" stroke-linecap="square"/><line x1="400" y1="320" x2="720" y2="260" stroke="currentColor" stroke-width="80" stroke-linecap="square"/><polygon points="115,815 185,815 185,885 115,885" fill="currentColor"/><polygon points="815,170 815,110 880,140" fill="currentColor"/></g>
</g>
</g>
<text x="750" y="1830" font-size="20" font-weight="500" fill="#222">complerescence</text>
<text x="750" y="1855" font-size="13" fill="#666" font-style="italic">mutual right-placement event</text>
<text x="750" y="1878" font-size="10" fill="#999">com[Lat] · compler[Lat] · escence[Lat]</text>
<line x1="80" y1="1905" x2="1320" y2="1905" stroke="#e6e3da" stroke-width="1"/>
<g color="#222">
<g transform="translate(100 1920)">
<g transform="translate(0 90) scale(0.09 -0.09)"><line x1="350" y1="220" x2="350" y2="780" stroke="currentColor" stroke-width="80" stroke-linecap="square"/><line x1="650" y1="220" x2="650" y2="780" stroke="currentColor" stroke-width="80" stroke-linecap="square"/><polygon points="115,815 185,815 185,885 115,885" fill="currentColor"/></g>
</g>
<g transform="translate(200 1920)">
<g transform="translate(0 90) scale(0.09 -0.09)"><line x1="300" y1="320" x2="700" y2="320" stroke="currentColor" stroke-width="80" stroke-linecap="square"/><line x1="700" y1="320" x2="700" y2="680" stroke="currentColor" stroke-width="80" stroke-linecap="square"/><line x1="700" y1="680" x2="300" y2="680" stroke="currentColor" stroke-width="80" stroke-linecap="square"/><line x1="300" y1="680" x2="300" y2="320" stroke="currentColor" stroke-width="80" stroke-linecap="square"/><polygon points="420,420 580,420 580,580 420,580" fill="currentColor"/><polygon points="115,815 185,815 185,885 115,885" fill="currentColor"/></g>
</g>
<g transform="translate(300 1920)">
<g transform="translate(0 90) scale(0.09 -0.09)"><line x1="400" y1="720" x2="500" y2="500" stroke="currentColor" stroke-width="80" stroke-linecap="square"/><line x1="600" y1="720" x2="500" y2="500" stroke="currentColor" stroke-width="80" stroke-linecap="square"/><line x1="500" y1="500" x2="500" y2="300" stroke="currentColor" stroke-width="80" stroke-linecap="square"/><polygon points="115,815 185,815 185,885 115,885" fill="currentColor"/><polygon points="815,170 815,110 880,140" fill="currentColor"/></g>
</g>
</g>
<text x="750" y="1960" font-size="20" font-weight="500" fill="#222">diplosemy</text>
<text x="750" y="1985" font-size="13" fill="#666" font-style="italic">engineered-duality of meaning</text>
<text x="750" y="2008" font-size="10" fill="#999">diplos[Gre] · sema[Gre] · y[Gr/]</text>
<line x1="80" y1="2035" x2="1320" y2="2035" stroke="#e6e3da" stroke-width="1"/>
<g color="#222">
<g transform="translate(100 2050)">
<g transform="translate(0 90) scale(0.09 -0.09)"><line x1="500" y1="220" x2="500" y2="780" stroke="currentColor" stroke-width="80" stroke-linecap="square"/><line x1="220" y1="500" x2="780" y2="500" stroke="currentColor" stroke-width="80" stroke-linecap="square"/><polygon points="115,815 185,815 185,885 115,885" fill="currentColor"/></g>
</g>
<g transform="translate(200 2050)">
<g transform="translate(0 90) scale(0.09 -0.09)"><line x1="260" y1="480" x2="410" y2="620" stroke="currentColor" stroke-width="80" stroke-linecap="square"/><line x1="410" y1="620" x2="590" y2="620" stroke="currentColor" stroke-width="80" stroke-linecap="square"/><line x1="590" y1="620" x2="740" y2="480" stroke="currentColor" stroke-width="80" stroke-linecap="square"/><line x1="740" y1="480" x2="590" y2="340" stroke="currentColor" stroke-width="80" stroke-linecap="square"/><line x1="590" y1="340" x2="410" y2="340" stroke="currentColor" stroke-width="80" stroke-linecap="square"/><line x1="410" y1="340" x2="260" y2="480" stroke="currentColor" stroke-width="80" stroke-linecap="square"/></g>
</g>
</g>
<text x="750" y="2090" font-size="20" font-weight="500" fill="#222">veriseem</text>
<text x="750" y="2115" font-size="13" fill="#666" font-style="italic">truth-seeming without truth-substance</text>
<text x="750" y="2138" font-size="10" fill="#999">veri[Lat] · seem[Eng]</text>
<line x1="80" y1="2165" x2="1320" y2="2165" stroke="#e6e3da" stroke-width="1"/>
</svg>